<svg width="266" height="260" viewBox="0 0 266 260" fill="none" xmlns="http://www.w3.org/2000/svg">
<path d="M211.723 232.501C211.723 232.501 211.712 232.501 211.701 232.512C210.885 233.187 184.674 254.801 180.724 258.38C176.72 262.025 146.559 258.38 146.559 258.38C133.688 247.568 105.105 209.853 83.4739 180.221L83.4413 180.189C79.6548 175.021 76.1078 170.094 72.8762 165.612C62.8335 151.655 56.0005 141.876 56.0005 141.876C62.0174 130.127 81.7113 120 81.7113 120C81.7113 120 88.1852 126.538 97.314 135.24C115.92 152.982 145.482 179.71 153.382 178.252C165.143 176.055 185.468 153.548 185.468 153.548C185.468 153.548 206.642 126.059 241.645 125.08H241.656C244.136 125.004 246.693 125.069 249.305 125.287C288.834 128.55 250.774 212.801 211.734 232.49L211.723 232.501Z" fill="white"/>
<g style="mix-blend-mode:multiply">
<path d="M212 232.436C211.186 233.112 185.021 254.787 181.078 258.376C177.082 262.03 146.974 258.376 146.974 258.376C134.125 247.533 105.593 209.714 84.0005 180C85.6623 181.582 136.059 239.417 158.357 242.657C180.601 245.897 211.034 232.632 212 232.436V232.436Z" fill="#E6E7E8"/>
</g>
<path d="M82.0005 120.516C82.0005 120.516 64.5302 145.009 58.4612 141.691C58.4612 141.691 45.3008 129.395 39.7486 114.329C39.012 112.34 38.4183 110.318 38.0005 108.252C38.0005 108.252 42.7941 95.2747 56.0205 95C56.0205 95 69.7526 104.637 72.5342 112.637C72.4133 111.912 70.5112 101.055 75.3158 100.791C79.2189 100.571 81.11 112.901 81.7476 118.164C81.9126 119.593 81.9895 120.505 81.9895 120.505L82.0005 120.516Z" fill="#FFC4C6"/>
<path d="M39.8616 25.4918L8.03177 34.0086C3.59594 35.1955 0.962175 39.7537 2.14908 44.1895L23.9084 125.511C25.0953 129.947 29.6534 132.58 34.0892 131.393L65.9191 122.877C70.3549 121.69 72.9887 117.132 71.8018 112.696L50.0425 31.3745C48.8556 26.9387 44.2975 24.3049 39.8616 25.4918Z" fill="#2F2E41"/>
<path d="M55.5898 46.9772L53.7227 47.4768L56.2344 56.8638L58.1015 56.3642L55.5898 46.9772Z" fill="#2F2E41"/>
<path d="M40.4224 27.5744L36.352 28.6635C36.662 29.0723 36.8666 29.551 36.9478 30.0576C37.0289 30.5641 36.9841 31.0828 36.8173 31.568C36.6505 32.0531 36.3668 32.4897 35.9913 32.8392C35.6158 33.1887 35.16 33.4403 34.6642 33.572L16.8315 38.3435C16.0311 38.5572 15.1786 38.4443 14.4614 38.0297C13.7442 37.615 13.221 36.9325 13.0069 36.1322C12.9027 35.7412 12.8746 35.3338 12.9242 34.9322L9.12928 35.9476C7.44438 36.3984 6.00758 37.5001 5.13497 39.0103C4.26235 40.5205 4.0254 42.3155 4.47623 44.0004V44.0004L26.0191 124.513C26.4702 126.197 27.572 127.633 29.082 128.506C30.5921 129.378 32.3868 129.615 34.0714 129.164L65.3645 120.791C67.0491 120.34 68.4857 119.239 69.3584 117.729C70.2311 116.219 70.4683 114.424 70.018 112.74V112.74L48.4751 32.2275C48.0243 30.5426 46.9226 29.1058 45.4124 28.2332C43.9022 27.3606 42.1073 27.1236 40.4224 27.5744V27.5744Z" fill="#E6E6E6"/>
<path d="M40.3989 27.519L36.3286 28.6081C36.6386 29.0169 36.8432 29.4956 36.9244 30.0022C37.0055 30.5087 36.9607 31.0274 36.7939 31.5125C36.6271 31.9977 36.3434 32.4342 35.9679 32.7837C35.5923 33.1332 35.1366 33.3849 34.6407 33.5165L16.8081 38.2881C16.0077 38.5018 15.1552 38.3889 14.438 37.9743C13.7208 37.5596 13.1976 36.8771 12.9834 36.0768C12.8792 35.6858 12.8512 35.2784 12.9008 34.8768L9.10584 35.8922C7.42094 36.343 5.98415 37.4447 5.11153 38.9549C4.23892 40.4651 4.00196 42.2601 4.45279 43.9449V43.9449L25.9956 124.457C26.4468 126.142 27.5486 127.578 29.0586 128.45C30.5687 129.323 32.3633 129.559 34.048 129.109L65.3411 120.735C67.0257 120.285 68.4623 119.183 69.335 117.673C70.2076 116.164 70.4449 114.369 69.9945 112.684V112.684L48.4517 32.1721C48.0009 30.4872 46.8992 29.0504 45.389 28.1778C43.8788 27.3051 42.0838 27.0682 40.3989 27.519V27.519Z" fill="white"/>
<path d="M35.2943 80.2842C35.6086 81.4591 34.9111 82.6663 33.7363 82.9806C32.5614 83.295 31.3542 82.5974 31.0399 81.4226C30.7255 80.2478 31.4231 79.0406 32.5979 78.7262C33.7727 78.4119 34.9799 79.1094 35.2943 80.2842Z" fill="#FFA825"/>
<path fill-rule="evenodd" clip-rule="evenodd" d="M33.7594 83.0677C34.9823 82.7405 35.7085 81.4839 35.3812 80.261C35.054 79.038 33.7974 78.3119 32.5744 78.6391C31.3515 78.9664 30.6254 80.223 30.9526 81.4459C31.2799 82.6689 32.5365 83.395 33.7594 83.0677ZM33.8741 83.4963C35.3337 83.1058 36.2004 81.6059 35.8098 80.1463C35.4193 78.6867 33.9194 77.82 32.4598 78.2106C31.0002 78.6011 30.1335 80.101 30.5241 81.5606C30.9146 83.0202 32.4145 83.8869 33.8741 83.4963Z" fill="#C4C4C4" fill-opacity="0.17"/>
<path fill-rule="evenodd" clip-rule="evenodd" d="M35.9311 76.1876C36.5583 76.4687 36.8412 77.2067 36.563 77.836L34.6917 82.0687C34.3595 82.8201 33.4396 83.0979 32.7473 82.6559L31.1617 81.6435C30.582 81.2733 30.4096 80.5019 30.7766 79.9206C31.1437 79.3392 31.9112 79.168 32.491 79.5382L32.9574 79.836L34.2916 76.8182C34.5698 76.1889 35.3038 75.9066 35.9311 76.1876Z" fill="white"/>
<path fill-rule="evenodd" clip-rule="evenodd" d="M35.6996 76.6847C36.0782 76.8492 36.2468 77.2857 36.0762 77.6598L34.1637 81.8535C33.95 82.3222 33.3647 82.4985 32.9267 82.2261L31.3334 81.235C30.9838 81.0176 30.8822 80.5608 31.1064 80.2148C31.3306 79.8688 31.7957 79.7646 32.1453 79.982L33.1029 80.5777L34.7051 77.0644C34.8757 76.6903 35.321 76.5203 35.6996 76.6847Z" fill="#FFA825"/>
<path fill-rule="evenodd" clip-rule="evenodd" d="M36.0785 77.0202C36.0044 76.8734 35.879 76.7506 35.7131 76.6796C35.3343 76.5176 34.8878 76.6875 34.7158 77.0591L33.1008 80.549L32.1431 79.9607C31.7935 79.746 31.3272 79.8507 31.1016 80.1946C30.9014 80.4998 30.9581 80.8909 31.2179 81.1251C31.1063 80.9035 31.1137 80.6305 31.262 80.4045C31.4876 80.0606 31.9538 79.9559 32.3034 80.1706L33.2611 80.7588L34.8762 77.269C35.0481 76.8974 35.4946 76.7275 35.8735 76.8895C35.951 76.9227 36.0198 76.9672 36.0785 77.0202Z" fill="#FF9900"/>
<path d="M37.0588 78.3758L36.9758 79.8447L36.6179 79.9405L36.7891 78.1495L37.0168 78.0886L37.0588 78.3758ZM37.7892 79.6271L36.9825 78.3962L36.8721 78.1273L37.1021 78.0657L38.1482 79.531L37.7892 79.6271ZM37.6068 79.0262L37.6771 79.2891L36.8144 79.5199L36.744 79.2571L37.6068 79.0262Z" fill="#FFA825"/>
<path d="M37.6934 77.8116L38.0165 77.7252L38.402 79.1659L38.4437 79.452L38.1531 79.5297L37.6934 77.8116ZM39.0795 78.6202L39.0858 78.6437C39.1099 78.7339 39.1223 78.8193 39.1231 78.8998C39.1245 78.9801 39.1128 79.0532 39.0879 79.119C39.0628 79.184 39.0249 79.2397 38.9739 79.2861C38.9236 79.3315 38.8588 79.3649 38.7795 79.3861C38.7054 79.4059 38.6371 79.4082 38.5745 79.393C38.5127 79.3775 38.4562 79.3475 38.405 79.3029C38.3538 79.2583 38.3072 79.2024 38.2652 79.1353C38.2232 79.0683 38.185 78.993 38.1506 78.9095L38.1369 78.858C38.1249 78.7685 38.1204 78.6842 38.1233 78.6052C38.1262 78.5261 38.1387 78.4544 38.1608 78.3902C38.1828 78.3259 38.2168 78.2717 38.2627 78.2275C38.3086 78.1832 38.3681 78.1513 38.4414 78.1317C38.5215 78.1103 38.5951 78.1069 38.6624 78.1217C38.7302 78.1355 38.7909 78.1648 38.8446 78.2096C38.8988 78.2534 38.9453 78.3105 38.9842 78.3808C39.0236 78.4502 39.0554 78.53 39.0795 78.6202ZM38.7627 78.7301L38.7564 78.7066C38.7432 78.6574 38.7271 78.6122 38.7081 78.5709C38.6896 78.5288 38.6673 78.4936 38.6413 78.4653C38.6151 78.4364 38.5845 78.4162 38.5494 78.4048C38.515 78.3933 38.4747 78.3937 38.4283 78.4061C38.3842 78.4179 38.3488 78.4353 38.3221 78.4585C38.2954 78.4816 38.2756 78.5093 38.2626 78.5415C38.2503 78.5736 38.2443 78.6095 38.2446 78.6494C38.2446 78.6886 38.2494 78.7304 38.2589 78.775L38.2981 78.9216C38.3161 78.9799 38.3398 79.0295 38.3692 79.0703C38.3991 79.1103 38.4355 79.1385 38.4784 79.155C38.5218 79.1705 38.5727 79.1705 38.6311 79.1549C38.6767 79.1427 38.7121 79.1236 38.7372 79.0977C38.7623 79.0718 38.7787 79.0403 38.7864 79.0031C38.7948 78.9656 38.7965 78.924 38.7915 78.8782C38.7862 78.8317 38.7766 78.7823 38.7627 78.7301Z" fill="#FFA825"/>
<path d="M39.886 78.7076C39.8798 78.6845 39.8675 78.6654 39.849 78.6504C39.8306 78.6354 39.8009 78.6249 39.7601 78.6191C39.7198 78.6123 39.6638 78.6113 39.5922 78.6161C39.5273 78.619 39.4655 78.6176 39.4071 78.6116C39.3491 78.6048 39.2968 78.592 39.2501 78.5733C39.2042 78.5545 39.1651 78.5282 39.1328 78.4944C39.1004 78.46 39.0773 78.417 39.0635 78.3656C39.0499 78.3149 39.048 78.2642 39.0577 78.2137C39.0682 78.1629 39.0894 78.1149 39.1214 78.0696C39.1539 78.0234 39.1974 77.9825 39.2521 77.9471C39.3073 77.9108 39.3727 77.8825 39.4482 77.8623C39.5537 77.8341 39.6487 77.8266 39.7332 77.84C39.8184 77.8531 39.8892 77.8837 39.9453 77.9319C40.002 77.979 40.0403 78.0399 40.0603 78.1144L39.7372 78.2009C39.7288 78.1696 39.7146 78.1434 39.6945 78.1224C39.675 78.1005 39.6495 78.0861 39.6181 78.0793C39.5872 78.0716 39.55 78.0736 39.5066 78.0852C39.4707 78.0948 39.4414 78.1094 39.4186 78.1291C39.3956 78.1481 39.3798 78.1699 39.3712 78.1945C39.3631 78.2183 39.3624 78.2424 39.369 78.2671C39.3739 78.2857 39.3822 78.3015 39.3936 78.3144C39.4057 78.3264 39.4222 78.3359 39.4434 78.343C39.4645 78.3502 39.4907 78.3551 39.5219 78.358C39.5537 78.3599 39.592 78.3592 39.6368 78.356C39.7291 78.3505 39.8136 78.3531 39.8901 78.3637C39.9665 78.3737 40.0315 78.3978 40.0851 78.4362C40.1384 78.4739 40.1757 78.5322 40.1968 78.6113C40.2112 78.665 40.2124 78.7174 40.2004 78.7685C40.1885 78.8197 40.1645 78.868 40.1286 78.9136C40.0925 78.9584 40.0456 78.9986 39.9877 79.034C39.9304 79.0685 39.8629 79.0962 39.7851 79.117C39.6722 79.1472 39.5711 79.1527 39.4818 79.1334C39.3932 79.114 39.3204 79.0787 39.2635 79.0276C39.2071 78.9756 39.1701 78.9168 39.1526 78.8511L39.4588 78.7692C39.4721 78.8128 39.4928 78.8452 39.5209 78.8665C39.5498 78.8875 39.5823 78.8996 39.6184 78.9027C39.6552 78.9056 39.6931 78.9019 39.732 78.8915C39.7739 78.8803 39.8072 78.8654 39.8318 78.8468C39.8563 78.8274 39.8731 78.8062 39.8821 78.783C39.8917 78.7589 39.893 78.7337 39.886 78.7076Z" fill="#FFA825"/>
<path d="M40.9377 78.8086C40.8435 78.8338 40.755 78.8415 40.6722 78.8317C40.5892 78.8211 40.5144 78.796 40.4477 78.7563C40.3817 78.7164 40.3254 78.6648 40.2788 78.6013C40.2319 78.5372 40.1977 78.4648 40.1762 78.3843L40.1642 78.3395C40.1397 78.2478 40.1303 78.1604 40.1361 78.0774C40.142 77.9943 40.1617 77.9183 40.1954 77.8494C40.2298 77.7802 40.2781 77.7213 40.3405 77.6727C40.4026 77.6233 40.4778 77.5868 40.566 77.5632C40.652 77.5402 40.7321 77.5339 40.8063 77.5445C40.8804 77.555 40.9469 77.5803 41.0058 77.6205C41.0653 77.6605 41.1165 77.714 41.1593 77.7808C41.2018 77.847 41.2349 77.9244 41.2587 78.0131L41.2946 78.1473L40.3298 78.4055L40.2723 78.1908L40.9196 78.0175L40.913 77.9929C40.9011 77.9482 40.8822 77.9105 40.8563 77.8799C40.8311 77.8483 40.7995 77.8263 40.7618 77.8141C40.724 77.8018 40.6801 77.8024 40.63 77.8158C40.5874 77.8272 40.5532 77.8463 40.5275 77.8731C40.5019 77.9 40.4838 77.9328 40.4733 77.9716C40.4636 78.0101 40.46 78.0534 40.4624 78.1015C40.4654 78.1487 40.4741 78.1991 40.4885 78.2528L40.5004 78.2975C40.5134 78.346 40.5321 78.3889 40.5565 78.4263C40.5817 78.4635 40.611 78.4937 40.6444 78.5167C40.6786 78.5395 40.7162 78.5542 40.7572 78.5608C40.799 78.5672 40.8435 78.5641 40.8906 78.5515C40.9489 78.5359 41.0002 78.5102 41.0443 78.4744C41.089 78.4377 41.1234 78.3913 41.1477 78.3353L41.3503 78.4633C41.3346 78.5066 41.3092 78.551 41.2741 78.5963C41.2397 78.6415 41.1947 78.6831 41.1391 78.7211C41.0834 78.7584 41.0163 78.7876 40.9377 78.8086Z" fill="#FFA825"/>
<path d="M41.5492 77.601L41.8039 78.5529L41.4808 78.6393L41.1569 77.4291L41.4598 77.348L41.5492 77.601ZM41.5835 77.9178L41.496 77.9412C41.472 77.8518 41.4621 77.7681 41.4661 77.6903C41.4699 77.6118 41.486 77.5416 41.5143 77.4797C41.5424 77.417 41.5817 77.3645 41.6321 77.3223C41.6831 77.2791 41.7444 77.2479 41.8162 77.2287C41.8731 77.2135 41.9273 77.2078 41.9788 77.2116C42.0303 77.2154 42.0777 77.2306 42.1209 77.2574C42.1649 77.284 42.2037 77.3244 42.2374 77.3785C42.2719 77.4324 42.3005 77.5018 42.3232 77.5868L42.5297 78.3586L42.2044 78.4457L41.9976 77.6728C41.9832 77.6191 41.9646 77.5793 41.9416 77.5535C41.9187 77.5277 41.891 77.5127 41.8587 77.5086C41.8269 77.5035 41.79 77.5066 41.7481 77.5178C41.7047 77.5294 41.6693 77.5481 41.6417 77.5738C41.6149 77.5994 41.5951 77.6303 41.5823 77.6664C41.5701 77.7017 41.5642 77.7408 41.5645 77.7839C41.5648 77.8269 41.5711 77.8716 41.5835 77.9178Z" fill="#FFA825"/>
<path d="M43.2159 77.8166C43.2097 77.7935 43.1974 77.7745 43.179 77.7594C43.1605 77.7444 43.1309 77.7339 43.09 77.7281C43.0497 77.7213 42.9938 77.7203 42.9221 77.7251C42.8572 77.728 42.7955 77.7266 42.737 77.7207C42.679 77.7138 42.6267 77.701 42.5801 77.6823C42.5341 77.6635 42.495 77.6372 42.4628 77.6034C42.4303 77.569 42.4072 77.526 42.3934 77.4746C42.3799 77.4239 42.3779 77.3732 42.3876 77.3227C42.3981 77.272 42.4193 77.2239 42.4513 77.1786C42.4838 77.1324 42.5274 77.0915 42.582 77.0561C42.6372 77.0198 42.7026 76.9915 42.7781 76.9713C42.8836 76.9431 42.9786 76.9356 43.0631 76.949C43.1484 76.9621 43.2191 76.9928 43.2752 77.0409C43.3319 77.088 43.3702 77.1489 43.3902 77.2234L43.0671 77.3099C43.0587 77.2786 43.0445 77.2524 43.0244 77.2314C43.005 77.2095 42.9795 77.1951 42.948 77.1883C42.9171 77.1806 42.8799 77.1826 42.8366 77.1942C42.8007 77.2038 42.7713 77.2184 42.7485 77.2381C42.7255 77.2571 42.7097 77.2789 42.7011 77.3035C42.693 77.3273 42.6923 77.3515 42.6989 77.3761C42.7039 77.3947 42.7121 77.4105 42.7236 77.4234C42.7356 77.4354 42.7522 77.4449 42.7733 77.452C42.7944 77.4592 42.8206 77.4641 42.8518 77.467C42.8836 77.4689 42.9219 77.4682 42.9667 77.465C43.059 77.4595 43.1435 77.4621 43.2201 77.4727C43.2965 77.4827 43.3614 77.5068 43.415 77.5452C43.4683 77.5829 43.5056 77.6412 43.5267 77.7203C43.5411 77.774 43.5423 77.8264 43.5304 77.8775C43.5184 77.9287 43.4945 77.977 43.4586 78.0226C43.4225 78.0674 43.3755 78.1076 43.3177 78.143C43.2604 78.1775 43.1928 78.2052 43.115 78.226C43.0021 78.2562 42.901 78.2617 42.8117 78.2424C42.7231 78.223 42.6504 78.1877 42.5934 78.1366C42.537 78.0846 42.5 78.0258 42.4825 77.9602L42.7888 77.8782C42.802 77.9218 42.8227 77.9542 42.8508 77.9755C42.8797 77.9965 42.9122 78.0086 42.9483 78.0117C42.9852 78.0146 43.023 78.0109 43.0619 78.0005C43.1038 77.9893 43.1371 77.9744 43.1618 77.9558C43.1862 77.9365 43.203 77.9152 43.212 77.892C43.2216 77.8679 43.2229 77.8427 43.2159 77.8166Z" fill="#FFA825"/>
<path d="M43.7202 76.7432L44.044 77.9535L43.7198 78.0402L43.396 76.83L43.7202 76.7432ZM43.2914 76.5199C43.2788 76.473 43.2849 76.4298 43.3096 76.3904C43.3343 76.351 43.3744 76.3239 43.4297 76.3091C43.4843 76.2945 43.5322 76.2981 43.5732 76.3199C43.6151 76.3414 43.6423 76.3757 43.6549 76.4227C43.6674 76.4697 43.661 76.5129 43.6355 76.5525C43.6108 76.5919 43.5711 76.6189 43.5165 76.6335C43.4612 76.6483 43.4129 76.6448 43.3718 76.6231C43.3308 76.6013 43.3039 76.5669 43.2914 76.5199Z" fill="#FFA825"/>
<path d="M37.4144 80.9869C37.4097 80.9694 37.4026 80.9546 37.3931 80.9428C37.3838 80.9305 37.3704 80.9208 37.353 80.9136C37.3359 80.9064 37.3134 80.9011 37.2854 80.8979C37.2578 80.8946 37.2235 80.8929 37.1825 80.8928C37.1394 80.8925 37.0998 80.8899 37.0639 80.8852C37.0279 80.88 36.996 80.8717 36.9682 80.8603C36.9404 80.8489 36.9174 80.8335 36.899 80.814C36.8807 80.7945 36.8676 80.7702 36.8597 80.7409C36.8519 80.7116 36.8512 80.6828 36.8575 80.6545C36.8639 80.6262 36.8767 80.5996 36.896 80.5749C36.9156 80.5497 36.9409 80.5274 36.9719 80.508C37.003 80.4886 37.0394 80.4734 37.081 80.4622C37.142 80.4459 37.1966 80.443 37.2448 80.4533C37.2932 80.4633 37.3333 80.4827 37.3649 80.5115C37.3964 80.54 37.4175 80.5739 37.428 80.6132L37.3209 80.6418C37.3133 80.6136 37.3001 80.5903 37.2813 80.5721C37.2624 80.5535 37.2381 80.5416 37.2084 80.5362C37.1786 80.5305 37.1434 80.5331 37.1029 80.5439C37.0646 80.5542 37.0344 80.568 37.0123 80.5853C36.9903 80.6027 36.9756 80.6221 36.9682 80.6437C36.9612 80.6651 36.9608 80.6876 36.9671 80.711C36.9713 80.7269 36.9787 80.7404 36.9893 80.7516C37.0002 80.7624 37.0147 80.7712 37.0329 80.7782C37.0514 80.7851 37.0739 80.7899 37.1002 80.7929C37.1268 80.7957 37.158 80.797 37.1938 80.7966C37.2431 80.7964 37.2865 80.7992 37.3239 80.805C37.3614 80.8109 37.3933 80.8203 37.4199 80.8331C37.4467 80.8455 37.4685 80.862 37.4851 80.8827C37.5021 80.9029 37.5145 80.9277 37.5223 80.957C37.5306 80.9876 37.5313 81.0172 37.5245 81.0456C37.5178 81.074 37.5043 81.1003 37.4841 81.1245C37.4639 81.1488 37.4376 81.1704 37.4053 81.1894C37.3732 81.208 37.3358 81.223 37.293 81.2344C37.2554 81.2445 37.2172 81.2495 37.1781 81.2496C37.1395 81.2496 37.1027 81.244 37.0678 81.2326C37.0333 81.2212 37.0033 81.2037 36.9779 81.1802C36.9528 81.1563 36.9352 81.1255 36.9251 81.088L37.0322 81.0593C37.0391 81.0852 37.0505 81.1059 37.0662 81.1217C37.0819 81.1371 37.1006 81.1483 37.1224 81.1554C37.1446 81.1624 37.1684 81.1656 37.1938 81.1651C37.2194 81.1642 37.2453 81.1602 37.2713 81.1532C37.3088 81.1432 37.3393 81.1299 37.3628 81.1132C37.3862 81.0966 37.4022 81.0776 37.4108 81.0561C37.4198 81.0345 37.421 81.0114 37.4144 80.9869Z" fill="#FFA825"/>
<path d="M37.7561 80.2927L37.9575 81.0455L37.8499 81.0743L37.6484 80.3215L37.7561 80.2927Z" fill="#FFA825"/>
<path d="M38.6665 80.6519C38.6618 80.6344 38.6546 80.6196 38.6451 80.6078C38.6358 80.5955 38.6225 80.5858 38.605 80.5786C38.5879 80.5714 38.5654 80.5661 38.5375 80.5629C38.5099 80.5596 38.4756 80.5578 38.4345 80.5578C38.3914 80.5575 38.3519 80.5549 38.3159 80.5501C38.2799 80.545 38.248 80.5367 38.2202 80.5253C38.1925 80.5139 38.1694 80.4985 38.1511 80.479C38.1327 80.4595 38.1196 80.4352 38.1118 80.4059C38.1039 80.3766 38.1032 80.3478 38.1096 80.3194C38.1159 80.2911 38.1288 80.2646 38.148 80.2399C38.1676 80.2147 38.1929 80.1924 38.224 80.173C38.255 80.1536 38.2914 80.1384 38.333 80.1272C38.394 80.1109 38.4486 80.1079 38.4968 80.1183C38.5453 80.1283 38.5853 80.1476 38.6169 80.1765C38.6485 80.205 38.6695 80.2389 38.68 80.2782L38.5729 80.3068C38.5654 80.2786 38.5522 80.2553 38.5334 80.2371C38.5144 80.2185 38.4901 80.2065 38.4604 80.2012C38.4306 80.1955 38.3954 80.1981 38.3549 80.2089C38.3166 80.2192 38.2864 80.233 38.2644 80.2503C38.2423 80.2677 38.2276 80.2871 38.2202 80.3087C38.2132 80.3301 38.2129 80.3526 38.2191 80.376C38.2234 80.3919 38.2308 80.4054 38.2413 80.4166C38.2522 80.4274 38.2667 80.4362 38.2849 80.4432C38.3035 80.45 38.3259 80.4549 38.3522 80.4579C38.3788 80.4607 38.4101 80.462 38.4458 80.4616C38.4952 80.4614 38.5385 80.4642 38.576 80.47C38.6134 80.4759 38.6454 80.4853 38.6719 80.4981C38.6987 80.5105 38.7205 80.527 38.7372 80.5477C38.7541 80.5679 38.7665 80.5927 38.7744 80.622C38.7826 80.6526 38.7833 80.6822 38.7766 80.7106C38.7698 80.739 38.7564 80.7653 38.7362 80.7895C38.716 80.8138 38.6897 80.8354 38.6573 80.8544C38.6252 80.873 38.5878 80.888 38.545 80.8994C38.5075 80.9095 38.4692 80.9145 38.4302 80.9146C38.3915 80.9146 38.3548 80.909 38.3198 80.8976C38.2853 80.8862 38.2553 80.8687 38.2299 80.8452C38.2048 80.8213 38.1872 80.7905 38.1772 80.7529L38.2842 80.7243C38.2911 80.7501 38.3025 80.7709 38.3183 80.7867C38.3339 80.802 38.3527 80.8133 38.3745 80.8204C38.3967 80.8274 38.4205 80.8306 38.4458 80.8301C38.4715 80.8292 38.4973 80.8252 38.5233 80.8182C38.5609 80.8082 38.5914 80.7949 38.6148 80.7782C38.6382 80.7616 38.6543 80.7426 38.6629 80.7211C38.6718 80.6994 38.673 80.6764 38.6665 80.6519Z" fill="#FFA825"/>
<path d="M39.2468 80.4568L39.2674 79.8883L39.3455 79.8674L39.355 80.0837L39.3283 80.6787L39.2508 80.6995L39.2468 80.4568ZM38.9395 79.976L39.2056 80.4567L39.3077 80.6843L39.2307 80.7049L38.8324 80.0047L38.9395 79.976ZM39.6918 80.3261L39.6796 79.778L39.7872 79.7492L39.7923 80.5546L39.7154 80.5752L39.6918 80.3261ZM39.3572 79.8643L39.6545 80.3477L39.7723 80.56L39.6947 80.5807L39.3806 80.0769L39.2803 79.8849L39.3572 79.8643Z" fill="#FFA825"/>
<path d="M40.3318 79.675L40.2466 80.433L40.1367 80.4624L40.2448 79.6268L40.3156 79.6078L40.3318 79.675ZM40.7407 80.3008L40.2877 79.6868L40.2682 79.6205L40.3391 79.6016L40.8511 80.2713L40.7407 80.3008ZM40.6522 80.0259L40.6741 80.1076L40.2179 80.2296L40.196 80.1479L40.6522 80.0259Z" fill="#FFA825"/>
<g clip-path="url(#clip0_607_1477)">
<circle cx="161.402" cy="47.4014" r="47.4014" fill="#FF9900"/>
<path d="M161.319 0C135.228 0 114 21.2269 114 47.3189C114 73.4109 135.228 94.6383 161.319 94.6383C187.411 94.6383 208.638 73.4109 208.638 47.3189C208.638 21.2269 187.411 0 161.319 0ZM188.491 39.3263L158.763 69.0544C157.499 70.3184 155.818 71.0142 154.031 71.0142C152.244 71.0142 150.563 70.3184 149.299 69.0544L134.148 53.9032C132.884 52.6392 132.188 50.9589 132.188 49.1715C132.188 47.3836 132.884 45.7033 134.148 44.4393C135.412 43.1752 137.092 42.479 138.88 42.479C140.667 42.479 142.348 43.1752 143.612 44.4398L154.03 54.8582L179.026 29.8624C180.29 28.5983 181.971 27.9026 183.758 27.9026C185.545 27.9026 187.226 28.5983 188.49 29.8624C191.1 32.4724 191.1 36.7173 188.491 39.3263Z" fill="white"/>
</g>
<defs>
<clipPath id="clip0_607_1477">
<rect width="94.6383" height="94.6383" fill="white" transform="translate(114)"/>
</clipPath>
</defs>
</svg>
