<svg width="612" height="576" viewBox="0 0 612 576" fill="none" xmlns="http://www.w3.org/2000/svg">
<path d="M599.354 288C663.53 433.468 470.518 576 311.58 576C152.641 576 -74.3537 448.294 23.8051 288C106.856 152.378 152.653 0 311.58 0C470.507 0 535.167 142.498 599.354 288V288Z" fill="#E3F8FD"/>
<path d="M534.3 457.31H76.8301V502.18H534.3V457.31Z" fill="#04877D"/>
<path d="M534.3 457.31H76.83L73 448.18H538.41L534.3 457.31Z" fill="#F59421"/>
<path d="M531.93 247.36H78.4697L85.8597 255.4H525.14L531.93 247.36Z" fill="#F59421"/>
<path d="M85.8594 255.4L103.099 274.17V448.18H508.579V275.02L525.139 255.4H85.8594Z" fill="#03AEA9"/>
<path d="M415.98 233.68H194.92H97.0801V247.36H194.65H416.21H514.6V233.68H415.98Z" fill="#FEC110"/>
<path d="M305.43 138.82C307.79 138.89 310.18 139.06 312.59 139.32C312.6 139.15 312.62 138.97 312.62 138.8C312.62 135.37 309.84 132.6 306.42 132.6C303 132.6 300.22 135.38 300.22 138.8C300.22 138.84 300.22 138.87 300.22 138.91C301.99 138.81 303.73 138.77 305.43 138.82Z" fill="#023353"/>
<path d="M312.59 139.32C310.18 139.06 307.79 138.89 305.43 138.82C303.74 138.77 302 138.8 300.22 138.91C260.04 141.24 200.6 182.08 194.92 233.67H415.98C410.93 182.71 358.35 144.23 312.59 139.32V139.32Z" fill="#28B1C3"/>
<path d="M312.62 111.56C312.62 114.99 309.84 117.76 306.42 117.76C303 117.76 300.22 114.98 300.22 111.56C300.22 108.14 303 108 306.42 108C309.84 108 312.62 108.14 312.62 111.56Z" fill="#FDBA11"/>
<g opacity="0.2">
<path d="M310.87 108.53C310.98 108.89 311.04 109.31 311.04 109.8C311.04 113.23 308.26 116 304.84 116C303.43 116 302.14 115.53 301.1 114.74C302.18 116.55 304.16 117.76 306.42 117.76C309.85 117.76 312.62 114.98 312.62 111.56C312.62 109.88 311.95 109 310.87 108.53V108.53Z" fill="#1B2929"/>
</g>
<path d="M307.21 117.76H305.45V132.6H307.21V117.76Z" fill="#023353"/>
<path d="M260.15 290.6H207.07V438.89H260.15V290.6Z" fill="#023351"/>
<path d="M186.09 438.88H124.44V336.92C124.44 319.89 138.24 287.67 155.27 287.67C172.3 287.67 186.1 319.9 186.1 336.92V438.88H186.09Z" fill="#023351"/>
<path d="M490.34 438.88H428.69V336.92C428.69 319.89 442.49 287.67 459.52 287.67C476.55 287.67 490.35 319.9 490.35 336.92V438.88H490.34Z" fill="#023351"/>
<path d="M333.75 290.6H280.67V438.89H333.75V290.6Z" fill="#023351"/>
<path d="M407.35 290.6H354.27V438.89H407.35V290.6Z" fill="#023351"/>
<g opacity="0.2">
<path d="M260.15 301.5V290.6H207.07V438.89H215.28V337.89C215.28 317.8 231.57 301.51 251.66 301.51H260.15V301.5Z" fill="white"/>
<path d="M163.47 298.57C168.09 298.57 172.47 300.95 176.41 304.75C170.89 295.12 163.45 287.67 155.27 287.67C138.24 287.67 124.44 319.9 124.44 336.92V438.88H132.65V347.82C132.65 330.79 146.45 298.57 163.48 298.57H163.47Z" fill="white"/>
<path d="M467.72 298.57C472.34 298.57 476.72 300.95 480.66 304.75C475.14 295.12 467.7 287.67 459.52 287.67C442.5 287.67 428.69 319.9 428.69 336.92V438.88H436.9V347.82C436.9 330.79 450.7 298.57 467.73 298.57H467.72Z" fill="white"/>
<path d="M333.75 301.5V290.6H280.67V438.89H288.88V336.11C288.88 317 304.37 301.51 323.48 301.51H333.75V301.5Z" fill="white"/>
<path d="M407.351 301.5V290.6H354.271V438.89H362.48V329.95C362.48 314.24 375.221 301.5 390.931 301.5H407.361H407.351Z" fill="white"/>
</g>
<g opacity="0.2">
<path d="M205.05 202.66C199.73 212.34 196.12 222.77 194.92 233.67H415.98C414.94 223.15 411.86 213.16 407.25 203.88C391.8 214.36 361.45 227.17 305.45 227.17C254.06 227.17 222.85 214.36 205.05 202.65V202.66Z" fill="#1B2929"/>
</g>
<path opacity="0.2" d="M85.8604 255.4H525.14L517.16 264.86H94.5504L85.8604 255.4Z" fill="#1B2929"/>
<path opacity="0.2" d="M534.3 457.31V502.18H398.08C398.08 502.18 524.04 504.65 534.3 457.31Z" fill="#1B2929"/>
<path opacity="0.2" d="M76.8301 457.31V502.18H213.05C213.05 502.18 87.0901 504.65 76.8301 457.31V457.31Z" fill="#1B2929"/>
<g opacity="0.5">
<path d="M224.62 186.24C229.9 177.08 237.34 169.38 245.48 162.68C267 145.04 297.34 135.84 324.52 144.51C328.27 145.74 331.95 147.28 335.43 149.13C327.64 148.5 320.22 148.04 312.54 148.45C279.61 150.04 250.56 166.74 224.62 186.24V186.24Z" fill="white"/>
</g>
<path d="M471.968 117.786H448.521C448.576 117.251 448.609 116.705 448.609 116.148C448.609 107.169 441.328 99.8828 432.355 99.8828C431.711 99.8828 431.078 99.9264 430.445 100.003C427.509 90.9584 419.027 84.4263 409.018 84.4263C396.574 84.4263 386.488 94.5194 386.488 106.972C386.488 107.693 386.521 108.403 386.587 109.102C385.768 108.971 384.927 108.905 384.065 108.905C377.745 108.905 372.265 112.521 369.58 117.786H352.17C349.91 117.786 347.869 118.704 346.385 120.178C344.9 121.664 343.994 123.706 343.994 125.968C343.994 130.49 347.651 134.16 352.17 134.16H471.979C474.238 134.16 476.279 133.243 477.775 131.757C479.248 130.282 480.165 128.229 480.165 125.968C480.165 121.456 476.498 117.786 471.979 117.786H471.968Z" fill="white"/>
</svg>
