<svg width="612" height="576" viewBox="0 0 612 576" fill="none" xmlns="http://www.w3.org/2000/svg">
<path d="M599.354 288C663.53 433.468 470.518 576 311.58 576C152.641 576 -74.3537 448.294 23.8051 288C106.856 152.378 152.653 0 311.58 0C470.507 0 535.167 142.498 599.354 288V288Z" fill="#E3F8FD"/>
<path d="M534.3 457.31H76.8301V502.18H534.3V457.31Z" fill="#04877D"/>
<path d="M534.3 457.31H76.83L73 448.18H538.41L534.3 457.31Z" fill="#F59421"/>
<path d="M531.93 247.36H78.4702L85.8602 255.4H525.14L531.93 247.36Z" fill="#F59421"/>
<path d="M85.8604 255.4L103.1 274.17V448.18H508.58V275.02L525.14 255.4H85.8604Z" fill="#03AEA9"/>
<path d="M415.98 233.68H194.92H97.0801V247.36H194.65H416.21H514.6V233.68H415.98Z" fill="#FEC110"/>
<path d="M305.43 138.82C307.79 138.89 310.18 139.06 312.59 139.32C312.6 139.15 312.62 138.97 312.62 138.8C312.62 135.37 309.84 132.6 306.42 132.6C303 132.6 300.22 135.38 300.22 138.8C300.22 138.84 300.22 138.87 300.22 138.91C301.99 138.81 303.73 138.77 305.43 138.82Z" fill="#023353"/>
<path d="M312.59 139.32C310.18 139.06 307.79 138.89 305.43 138.82C303.74 138.77 302 138.8 300.22 138.91C260.04 141.24 200.6 182.08 194.92 233.67H415.98C410.93 182.71 358.35 144.23 312.59 139.32V139.32Z" fill="#28B1C3"/>
<path d="M312.62 111.56C312.62 114.99 309.84 117.76 306.42 117.76C303 117.76 300.22 114.98 300.22 111.56C300.22 108.14 303 108 306.42 108C309.84 108 312.62 108.14 312.62 111.56Z" fill="#FDBA11"/>
<g opacity="0.2">
<path d="M310.87 108.53C310.98 108.89 311.04 109.31 311.04 109.8C311.04 113.23 308.26 116 304.84 116C303.43 116 302.14 115.53 301.1 114.74C302.18 116.55 304.16 117.76 306.42 117.76C309.85 117.76 312.62 114.98 312.62 111.56C312.62 109.88 311.95 109 310.87 108.53V108.53Z" fill="#1B2929"/>
</g>
<path d="M307.21 117.76H305.45V132.6H307.21V117.76Z" fill="#023353"/>
<path d="M260.15 290.6H207.07V438.89H260.15V290.6Z" fill="#023351"/>
<path d="M186.09 438.88H124.44V336.92C124.44 319.89 138.24 287.67 155.27 287.67C172.3 287.67 186.1 319.9 186.1 336.92V438.88H186.09Z" fill="#023351"/>
<path d="M490.34 438.88H428.69V336.92C428.69 319.89 442.49 287.67 459.52 287.67C476.55 287.67 490.35 319.9 490.35 336.92V438.88H490.34Z" fill="#023351"/>
<path d="M333.75 290.6H280.67V438.89H333.75V290.6Z" fill="#023351"/>
<path d="M407.35 290.6H354.27V438.89H407.35V290.6Z" fill="#023351"/>
<g opacity="0.2">
<path d="M260.15 301.5V290.6H207.07V438.89H215.28V337.89C215.28 317.8 231.57 301.51 251.66 301.51H260.15V301.5Z" fill="white"/>
<path d="M163.47 298.57C168.09 298.57 172.47 300.95 176.41 304.75C170.89 295.12 163.45 287.67 155.27 287.67C138.24 287.67 124.44 319.9 124.44 336.92V438.88H132.65V347.82C132.65 330.79 146.45 298.57 163.48 298.57H163.47Z" fill="white"/>
<path d="M467.72 298.57C472.34 298.57 476.72 300.95 480.66 304.75C475.14 295.12 467.7 287.67 459.52 287.67C442.5 287.67 428.69 319.9 428.69 336.92V438.88H436.9V347.82C436.9 330.79 450.7 298.57 467.73 298.57H467.72Z" fill="white"/>
<path d="M333.75 301.5V290.6H280.67V438.89H288.88V336.11C288.88 317 304.37 301.51 323.48 301.51H333.75V301.5Z" fill="white"/>
<path d="M407.35 301.5V290.6H354.27V438.89H362.48V329.95C362.48 314.24 375.22 301.5 390.93 301.5H407.36H407.35Z" fill="white"/>
</g>
<g opacity="0.2">
<path d="M205.05 202.66C199.73 212.34 196.12 222.77 194.92 233.67H415.98C414.94 223.15 411.86 213.16 407.25 203.88C391.8 214.36 361.45 227.17 305.45 227.17C254.06 227.17 222.85 214.36 205.05 202.65V202.66Z" fill="#1B2929"/>
</g>
<path opacity="0.2" d="M85.8599 255.4H525.14L517.16 264.86H94.5499L85.8599 255.4Z" fill="#1B2929"/>
<path opacity="0.2" d="M534.3 457.31V502.18H398.08C398.08 502.18 524.04 504.65 534.3 457.31Z" fill="#1B2929"/>
<path opacity="0.2" d="M76.8301 457.31V502.18H213.05C213.05 502.18 87.0901 504.65 76.8301 457.31V457.31Z" fill="#1B2929"/>
<g opacity="0.5">
<path d="M224.62 186.24C229.9 177.08 237.34 169.38 245.48 162.68C267 145.04 297.34 135.84 324.52 144.51C328.27 145.74 331.95 147.28 335.43 149.13C327.64 148.5 320.22 148.04 312.54 148.45C279.61 150.04 250.56 166.74 224.62 186.24V186.24Z" fill="white"/>
</g>
<path d="M313 510.661C313 514.199 314.383 517.591 316.844 520.093C319.306 522.595 322.644 524 326.125 524H544.875C548.356 524 551.694 522.595 554.156 520.093C556.617 517.591 558 514.199 558 510.661V355.036H313V510.661ZM488 375.045C488 374.455 488.23 373.89 488.641 373.473C489.051 373.056 489.607 372.821 490.188 372.821H512.062C512.643 372.821 513.199 373.056 513.609 373.473C514.02 373.89 514.25 374.455 514.25 375.045V397.277C514.25 397.866 514.02 398.432 513.609 398.849C513.199 399.266 512.643 399.5 512.062 399.5H490.188C489.607 399.5 489.051 399.266 488.641 398.849C488.23 398.432 488 397.866 488 397.277V375.045ZM488 419.509C488 418.919 488.23 418.354 488.641 417.937C489.051 417.52 489.607 417.286 490.188 417.286H512.062C512.643 417.286 513.199 417.52 513.609 417.937C514.02 418.354 514.25 418.919 514.25 419.509V441.741C514.25 442.331 514.02 442.896 513.609 443.313C513.199 443.73 512.643 443.964 512.062 443.964H490.188C489.607 443.964 489.051 443.73 488.641 443.313C488.23 442.896 488 442.331 488 441.741V419.509ZM444.25 375.045C444.25 374.455 444.48 373.89 444.891 373.473C445.301 373.056 445.857 372.821 446.438 372.821H468.312C468.893 372.821 469.449 373.056 469.859 373.473C470.27 373.89 470.5 374.455 470.5 375.045V397.277C470.5 397.866 470.27 398.432 469.859 398.849C469.449 399.266 468.893 399.5 468.312 399.5H446.438C445.857 399.5 445.301 399.266 444.891 398.849C444.48 398.432 444.25 397.866 444.25 397.277V375.045ZM444.25 419.509C444.25 418.919 444.48 418.354 444.891 417.937C445.301 417.52 445.857 417.286 446.438 417.286H468.312C468.893 417.286 469.449 417.52 469.859 417.937C470.27 418.354 470.5 418.919 470.5 419.509V441.741C470.5 442.331 470.27 442.896 469.859 443.313C469.449 443.73 468.893 443.964 468.312 443.964H446.438C445.857 443.964 445.301 443.73 444.891 443.313C444.48 442.896 444.25 442.331 444.25 441.741V419.509ZM444.25 463.973C444.25 463.384 444.48 462.818 444.891 462.401C445.301 461.984 445.857 461.75 446.438 461.75H468.312C468.893 461.75 469.449 461.984 469.859 462.401C470.27 462.818 470.5 463.384 470.5 463.973V486.205C470.5 486.795 470.27 487.36 469.859 487.777C469.449 488.194 468.893 488.429 468.312 488.429H446.438C445.857 488.429 445.301 488.194 444.891 487.777C444.48 487.36 444.25 486.795 444.25 486.205V463.973ZM400.5 419.509C400.5 418.919 400.73 418.354 401.141 417.937C401.551 417.52 402.107 417.286 402.688 417.286H424.562C425.143 417.286 425.699 417.52 426.109 417.937C426.52 418.354 426.75 418.919 426.75 419.509V441.741C426.75 442.331 426.52 442.896 426.109 443.313C425.699 443.73 425.143 443.964 424.562 443.964H402.688C402.107 443.964 401.551 443.73 401.141 443.313C400.73 442.896 400.5 442.331 400.5 441.741V419.509ZM400.5 463.973C400.5 463.384 400.73 462.818 401.141 462.401C401.551 461.984 402.107 461.75 402.688 461.75H424.562C425.143 461.75 425.699 461.984 426.109 462.401C426.52 462.818 426.75 463.384 426.75 463.973V486.205C426.75 486.795 426.52 487.36 426.109 487.777C425.699 488.194 425.143 488.429 424.562 488.429H402.688C402.107 488.429 401.551 488.194 401.141 487.777C400.73 487.36 400.5 486.795 400.5 486.205V463.973ZM356.75 419.509C356.75 418.919 356.98 418.354 357.391 417.937C357.801 417.52 358.357 417.286 358.938 417.286H380.812C381.393 417.286 381.949 417.52 382.359 417.937C382.77 418.354 383 418.919 383 419.509V441.741C383 442.331 382.77 442.896 382.359 443.313C381.949 443.73 381.393 443.964 380.812 443.964H358.938C358.357 443.964 357.801 443.73 357.391 443.313C356.98 442.896 356.75 442.331 356.75 441.741V419.509ZM356.75 463.973C356.75 463.384 356.98 462.818 357.391 462.401C357.801 461.984 358.357 461.75 358.938 461.75H380.812C381.393 461.75 381.949 461.984 382.359 462.401C382.77 462.818 383 463.384 383 463.973V486.205C383 486.795 382.77 487.36 382.359 487.777C381.949 488.194 381.393 488.429 380.812 488.429H358.938C358.357 488.429 357.801 488.194 357.391 487.777C356.98 487.36 356.75 486.795 356.75 486.205V463.973ZM544.875 292.786H514.294V275H488.044V292.786H382.956V275H356.706V292.786H326.125C324.408 292.771 322.705 293.102 321.114 293.759C319.524 294.416 318.077 295.387 316.857 296.615C315.637 297.843 314.668 299.304 314.006 300.914C313.344 302.525 313.002 304.252 313 305.997V337.25H558V305.997C557.998 304.252 557.656 302.525 556.994 300.914C556.332 299.304 555.363 297.843 554.143 296.615C552.923 295.387 551.476 294.416 549.886 293.759C548.295 293.102 546.592 292.771 544.875 292.786V292.786Z" fill="#F71071"/>
</svg>
