<svg width="612" height="576" viewBox="0 0 612 576" fill="none" xmlns="http://www.w3.org/2000/svg">
<path d="M599.354 288C663.53 433.468 470.518 576 311.58 576C152.641 576 -74.3537 448.294 23.8051 288C106.856 152.378 152.653 0 311.58 0C470.507 0 535.167 142.498 599.354 288V288Z" fill="#E3F8FD"/>
<path d="M567.867 551.747C507.537 578.237 444.857 556.777 444.857 556.777C441.697 550.117 440.157 541.857 439.597 533.227C438.157 511.057 443.307 486.517 444.587 480.887C444.767 480.097 444.857 479.677 444.857 479.677L442.507 456.557C442.507 456.557 427.867 468.617 419.417 475.717C416.867 477.867 414.867 479.567 414.007 480.347C410.327 483.697 382.607 480.347 382.607 480.347C368.707 468.657 334.877 422.857 314.887 395.067C305.657 382.237 299.377 373.247 299.377 373.247C304.907 362.447 323.007 353.137 323.007 353.137C323.007 353.137 328.957 359.147 337.347 367.147C354.447 383.457 381.617 408.027 388.877 406.687C396.357 405.297 407.617 394.957 413.827 388.717C416.587 385.947 418.367 383.977 418.367 383.977C401.127 352.997 421.847 314.797 422.307 313.947H422.317C422.317 313.947 423.117 313.697 424.607 313.407C426.337 313.077 429.007 312.697 432.427 312.567C434.347 312.517 436.497 312.527 438.847 312.677C459.387 313.957 495.657 325.597 527.897 383.977C541.277 408.207 550.307 431.887 556.367 453.477C556.377 453.507 556.387 453.527 556.397 453.567C560.947 469.767 563.827 484.777 565.627 497.947C570.057 530.487 567.867 551.737 567.867 551.737V551.747Z" fill="white"/>
<path d="M436.137 359.687C435.127 379.047 418.797 392.367 418.797 392.367C418.797 392.367 416.547 391.527 413.827 388.727C416.587 385.957 418.367 383.987 418.367 383.987C401.127 353.007 421.847 314.807 422.307 313.957H422.317C422.317 313.957 423.117 313.707 424.607 313.417C438.737 319.897 437.097 341.257 436.137 359.677V359.687Z" fill="#5F142F"/>
<path d="M403.658 306.057C409.438 310.567 415.687 313.167 422.307 313.957C422.307 313.957 436.738 326.797 430.708 363.977C418.938 354.517 409.238 350.177 388.208 354.937L403.647 306.057H403.658Z" fill="#FFC4C6"/>
<g style="mix-blend-mode:multiply">
<path d="M403.658 306.057C409.438 310.567 415.687 313.167 422.307 313.957C422.307 313.957 436.738 326.797 430.708 363.977C418.938 354.517 409.238 350.177 388.208 354.937L403.647 306.057H403.658Z" fill="#FFC4C6"/>
</g>
<path d="M264.548 280.157C264.548 280.157 266.138 309.807 243.258 323.897C220.378 337.977 248.778 270.787 259.968 267.557C271.158 264.327 264.538 280.167 264.538 280.167L264.548 280.157Z" fill="#5F142F"/>
<path d="M252.808 539.847C176.898 577.057 90.9175 539.847 90.9175 539.847C90.3175 535.497 91.6375 526.167 93.7975 515.207C94.4775 511.767 95.2375 508.167 96.0375 504.517C101.278 480.857 108.518 454.877 108.518 454.877L241.258 463.427L246.848 500.407L249.348 516.917L252.808 539.847V539.847Z" fill="#9F134E"/>
<g style="mix-blend-mode:multiply" opacity="0.45">
<path d="M246.847 500.417C238.987 499.177 230.717 500.107 223.597 505.637C202.087 522.337 158.797 524.777 128.627 509.697C116.757 503.757 105.417 503.117 96.0474 504.537C101.287 480.877 108.527 454.897 108.527 454.897L241.267 463.447L246.857 500.427L246.847 500.417Z" fill="#9F134E"/>
</g>
<path d="M248.797 468.957C241.257 508.677 94.4374 496.607 93.9374 472.477C93.6374 458.337 102.677 402.197 110.197 358.167C115.517 327.087 120.077 302.037 120.077 302.037C120.077 302.037 145.907 287.327 174.477 275.997C212.497 260.917 255.397 251.867 248.797 291.477C248.447 293.557 248.127 295.647 247.837 297.717C242.637 334.597 245.637 370.967 248.197 402.637C250.287 428.687 252.097 451.567 248.797 468.957V468.957Z" fill="white"/>
<g style="mix-blend-mode:multiply">
<path d="M248.197 402.637C247.467 403.877 246.647 405.037 245.787 406.117C224.167 432.757 172.377 420.197 148.737 378.957C137.467 359.287 122.877 355.757 110.197 358.167C115.517 327.087 120.077 302.037 120.077 302.037C120.077 302.037 145.907 287.327 174.477 275.997C190.657 276.227 206.067 276.657 206.067 276.657L247.837 297.717C242.637 334.597 245.637 370.967 248.197 402.637V402.637Z" fill="#E6E7E8"/>
</g>
<path d="M276.947 235.997C276.947 235.997 277.617 247.057 273.767 254.767C269.917 262.477 264.547 250.237 264.547 250.237L276.947 235.987V235.997Z" fill="#5F142F"/>
<path d="M343.567 275.047C343.567 275.047 331.777 283.757 318.687 292.887C317.567 293.667 316.437 294.457 315.297 295.237C301.377 304.837 286.997 314.127 284.367 313.457C279.007 312.107 250.597 289.427 250.597 289.427C250.597 289.427 252.107 275.387 255.607 262.217C257.337 255.687 259.557 249.357 262.317 245.067C263.847 242.687 265.547 240.937 267.427 240.107C267.427 240.107 268.837 241.857 271.017 244.537C272.287 246.097 273.817 247.957 275.457 249.977C276.977 251.817 278.617 253.797 280.247 255.747C286.467 263.157 292.767 270.407 293.627 270.287C295.287 270.047 337.187 251.417 341.307 249.587C341.527 249.497 341.637 249.447 341.637 249.447L343.567 275.057V275.047Z" fill="white"/>
<g style="mix-blend-mode:screen" opacity="0.42">
<path d="M341.308 249.577L337.338 263.847C337.338 263.847 301.838 282.197 293.288 277.307C284.748 272.417 280.248 255.727 280.248 255.727C286.468 263.137 292.768 270.387 293.628 270.267C295.288 270.027 337.188 251.397 341.308 249.567V249.577Z" fill="#E6E7E8"/>
</g>
<g style="mix-blend-mode:multiply">
<path d="M315.307 290.167C301.387 299.767 287.007 309.057 284.377 308.387C279.017 307.037 250.607 284.357 250.607 284.357C250.607 284.357 252.117 270.317 255.617 257.147C257.347 250.617 259.567 244.287 262.327 239.997C264.827 238.927 267.717 238.587 271.017 239.467C272.827 239.947 274.767 240.817 276.827 242.127C276.827 242.127 276.277 243.137 275.457 244.897C272.587 251.057 266.407 266.417 269.157 279.357C272.677 295.977 290.507 302.257 311.627 291.707C313.037 290.997 314.267 290.487 315.297 290.157L315.307 290.167Z" fill="#E6E7E8"/>
</g>
<path d="M276.957 235.997C272.637 241.837 268.927 248.077 265.737 254.487C255.777 274.417 250.907 295.937 248.477 311.957C247.377 319.127 246.787 325.187 246.447 329.517C246.377 330.317 246.237 331.187 246.027 332.107C244.017 340.887 235.537 354.747 225.137 366.667C213.357 380.187 199.127 391.217 189.117 389.517C173.627 386.897 159.377 353.237 149.567 333.117C146.857 327.547 144.477 323.007 142.517 320.467C141.067 318.597 139.167 317.667 136.947 317.427C136.427 317.377 135.907 317.347 135.357 317.377C123.537 317.607 104.337 333.027 93.5774 326.837C85.4774 322.177 87.6574 303.567 91.0274 281.497C92.0674 274.637 93.2274 267.427 94.2274 260.217C95.3374 252.247 96.2474 244.257 96.5974 236.667C97.5774 215.537 107.057 197.887 114.897 186.757C116.497 184.467 118.037 182.467 119.417 180.757C122.937 176.387 125.437 173.977 125.437 173.977L130.427 160.747L132.137 156.207C134.427 141.437 138.327 130.617 141.717 123.407C143.107 120.457 144.417 118.107 145.477 116.357C145.767 115.897 146.027 115.467 146.277 115.087C147.477 113.217 148.227 112.307 148.227 112.307C148.227 112.307 149.907 91.3269 155.157 70.5969C158.037 59.2269 161.997 47.9469 167.327 40.2369C182.417 18.4469 207.227 16.7769 226.667 23.4769C229.577 24.4869 232.357 25.6269 234.967 26.9969C249.787 34.7769 259.057 49.7269 254.487 86.4369C249.127 129.627 235.047 156.227 235.047 156.227C237.197 160.227 239.587 168.817 242.367 178.087C243.457 181.657 244.577 185.347 245.787 188.897C246.677 191.527 247.597 194.097 248.557 196.497C248.987 197.587 249.427 198.627 249.877 199.637C251.807 203.977 253.887 207.597 256.157 209.867C256.757 210.467 257.377 211.107 257.987 211.767C267.217 221.577 276.947 236.017 276.947 236.017L276.957 235.997Z" fill="#9F134E"/>
<g style="mix-blend-mode:multiply" opacity="0.45">
<path d="M119.427 180.767C122.947 176.397 125.447 173.987 125.447 173.987L130.437 160.757C133.867 160.627 137.327 160.957 140.527 161.897C140.527 161.897 146.237 183.657 119.437 180.767H119.427Z" fill="#9F134E"/>
</g>
<g style="mix-blend-mode:multiply" opacity="0.45">
<path d="M253.567 253.487C247.097 232.317 248.537 197.227 248.567 196.497C248.997 197.567 249.437 198.617 249.887 199.617C251.817 203.957 253.897 207.577 256.167 209.847C256.767 210.447 257.387 211.087 257.997 211.747C253.257 226.847 253.567 253.487 253.567 253.487Z" fill="#9F134E"/>
</g>
<g style="mix-blend-mode:multiply" opacity="0.45">
<path d="M265.737 254.487C255.777 274.417 250.907 295.937 248.477 311.957C240.657 309.767 213.907 302.207 212.847 301.787C211.587 301.287 183.687 279.917 183.687 279.917C183.687 279.917 174.127 254.777 194.607 269.527C215.087 284.277 243.517 284.447 246.727 272.267C249.217 262.837 260.677 256.767 265.737 254.497V254.487Z" fill="#9F134E"/>
</g>
<g style="mix-blend-mode:multiply" opacity="0.45">
<path d="M246.037 332.107C244.027 340.887 235.547 354.747 225.147 366.667C203.357 339.717 167.267 334.167 149.587 333.117C146.877 327.547 144.497 323.007 142.537 320.467C141.087 318.597 139.187 317.667 136.967 317.427C136.447 317.377 135.927 317.347 135.377 317.377C133.477 309.397 131.637 301.157 131.887 300.277C132.387 298.527 147.477 291.727 147.477 291.727C147.477 291.727 197.757 299.527 232.447 318.637C238.107 321.757 242.597 326.517 246.027 332.127L246.037 332.107Z" fill="#9F134E"/>
</g>
<g style="mix-blend-mode:multiply" opacity="0.45">
<path d="M142.507 172.977C142.507 172.977 174.467 193.927 211.247 192.667C211.247 192.667 169.457 204.067 142.507 172.977V172.977Z" fill="#9F134E"/>
</g>
<g style="mix-blend-mode:multiply" opacity="0.45">
<path d="M206.248 205.807C206.398 205.627 206.678 205.357 207.038 204.997C206.778 205.287 206.508 205.557 206.248 205.807Z" fill="#9F134E"/>
</g>
<g style="mix-blend-mode:multiply" opacity="0.45">
<path d="M242.377 178.077C227.317 185.227 211.777 200.227 207.327 204.697C219.917 191.057 235.057 156.217 235.057 156.217C237.207 160.217 239.597 168.807 242.377 178.077V178.077Z" fill="#9F134E"/>
</g>
<g style="mix-blend-mode:multiply" opacity="0.45">
<path d="M167.718 86.437C167.718 86.437 172.498 99.027 183.178 101.417C193.858 103.807 173.998 108.327 173.998 108.327C173.998 108.327 168.718 97.097 167.708 86.437H167.718Z" fill="#9F134E"/>
</g>
<g style="mix-blend-mode:multiply" opacity="0.45">
<path d="M146.288 115.087C147.898 117.367 151.388 132.927 153.438 139.587C151.648 135.287 147.658 127.187 141.728 123.407C143.118 120.457 144.428 118.107 145.488 116.357C145.778 115.897 146.038 115.467 146.288 115.087V115.087Z" fill="#9F134E"/>
</g>
<g style="mix-blend-mode:multiply" opacity="0.45">
<path d="M154.488 142.377C154.228 141.957 153.878 140.997 153.458 139.657C154.098 141.177 154.438 142.207 154.488 142.377Z" fill="#9F134E"/>
</g>
<path d="M182.478 124.027C182.478 124.027 168.588 116.457 167.708 86.427C167.708 86.427 173.998 109.697 181.788 115.987C189.578 122.277 182.478 124.027 182.478 124.027Z" fill="#5F142F"/>
<path d="M246.277 103.177C229.687 135.857 203.037 140.137 203.037 140.137C178.397 130.827 175.137 106.197 175.137 106.197C175.137 106.197 175.137 106.187 175.147 106.177C182.237 85.617 200.327 64.917 215.297 50.757C220.987 45.377 226.217 40.937 230.217 37.807C234.747 34.287 237.717 32.437 237.987 32.797C239.137 34.287 240.157 36.017 241.047 37.937C243.597 43.377 245.177 50.357 246.127 57.717C246.497 60.637 246.777 63.607 246.967 66.577C248.187 85.117 246.277 103.187 246.277 103.187V103.177Z" fill="#FFC4C6"/>
<path d="M246.127 57.7069C234.967 52.8569 223.687 51.2069 215.297 50.7469C227.397 39.2769 237.467 32.1069 237.997 32.7869C242.417 38.4969 244.857 47.7569 246.137 57.7069H246.127Z" fill="#5F142F"/>
<path d="M280.977 328.927C280.977 328.927 298.747 328.477 309.637 341.497C320.527 354.517 284.097 344.107 270.617 348.787L280.977 328.927V328.927Z" fill="#FFA9AF"/>
<path d="M281.898 332.757C281.358 337.147 280.268 342.997 278.798 347.307C277.638 350.727 276.228 353.187 274.688 353.147C269.918 353.057 264.558 349.287 264.558 349.287L266.928 339.297L269.128 330.047L270.588 323.897C270.588 323.897 281.398 324.077 282.158 326.837C282.358 327.587 282.258 329.857 281.908 332.757H281.898Z" fill="#9F134E"/>
<g style="mix-blend-mode:multiply" opacity="0.45">
<path d="M278.798 347.307C277.638 350.727 276.228 353.187 274.688 353.147C269.918 353.057 264.558 349.287 264.558 349.287L266.928 339.297C268.758 341.907 272.698 346.347 278.798 347.297V347.307Z" fill="#9F134E"/>
</g>
<path d="M261.867 355.077C261.867 355.077 258.987 354.097 254.067 352.427C241.217 348.057 214.527 338.887 189.667 329.997C164.457 320.987 141.147 312.237 136.077 309.047C135.617 308.757 135.307 308.517 135.157 308.327C134.517 307.497 134.727 305.817 135.577 303.577C140.107 291.697 162.927 264.187 174.717 265.167C174.717 265.167 178.487 267.177 184.527 270.437C188.977 272.837 194.667 275.917 201.007 279.377C227.297 293.737 264.637 314.617 270.417 320.397C270.417 320.397 272.677 346.027 261.867 355.087V355.077Z" fill="white"/>
<g style="mix-blend-mode:multiply">
<path d="M189.667 329.997C164.457 320.987 141.147 312.237 136.077 309.047C135.787 307.267 135.597 305.417 135.577 303.577C140.107 291.697 162.927 264.187 174.717 265.167C174.717 265.167 178.487 267.177 184.527 270.437C179.057 274.977 170.657 284.007 172.267 295.717C174.507 311.957 192.907 318.447 189.667 329.987V329.997Z" fill="#E6E7E8"/>
</g>
<path d="M413.398 311.597C422.228 336.537 418.138 359.267 398.308 366.127C389.698 369.107 377.208 365.577 365.768 360.207C363.968 359.357 362.198 358.467 360.468 357.547C352.578 353.367 345.618 348.607 341.378 345.007C338.838 342.847 337.358 341.497 337.358 341.497C336.708 324.297 365.398 289.897 370.408 283.997C370.888 283.427 371.158 283.137 371.158 283.137L391.198 303.527C382.908 292.917 389.108 272.397 405.578 281.247C422.028 290.107 413.398 311.597 413.398 311.597V311.597Z" fill="#FFC4C6"/>
<g style="mix-blend-mode:multiply">
<path d="M391.197 303.527C375.067 306.937 380.947 298.477 369.547 303.577C359.377 308.127 344.477 338.487 341.377 345.007C338.837 342.847 337.357 341.497 337.357 341.497C336.717 324.297 365.397 289.897 370.417 283.997L391.197 303.527V303.527Z" fill="#FFC4C6"/>
</g>
<path d="M365.807 289.567C365.807 289.567 378.767 302.887 391.197 303.527C391.197 303.527 381.817 283.077 399.097 279.147L386.177 265.137C386.177 265.137 364.887 278.177 365.807 289.567V289.567Z" fill="#231F20"/>
<path d="M388.067 266.137C388.067 266.137 385.817 268.667 382.207 272.997C371.317 286.097 348.087 315.667 337.347 341.497C337.347 341.497 323.437 335.697 316.057 312.897C312.837 302.937 314.837 292.087 320.097 282.697C326.877 270.577 339.087 260.907 352.457 258.837C376.177 255.157 384.517 263.207 388.067 266.137Z" fill="#9F134E"/>
<g style="mix-blend-mode:multiply" opacity="0.45">
<path d="M388.067 266.137C388.067 266.137 385.817 268.667 382.207 272.997C379.257 273.307 375.817 274.387 371.957 276.707C357.517 285.347 351.067 278.267 342.667 283.587C337.487 286.867 330.187 285.967 328.017 280.717C326.887 277.967 322.867 280.297 320.097 282.697C326.877 270.577 339.087 260.907 352.457 258.837C376.177 255.157 384.517 263.207 388.067 266.137Z" fill="#9F134E"/>
</g>
<path d="M331.837 251.567C331.837 251.567 324.757 255.077 323.117 261.077C323.117 261.077 325.027 265.247 325.227 269.777C325.337 272.227 328.517 273.177 329.997 271.227C331.597 269.127 333.077 266.037 333.747 261.527C333.747 261.527 334.767 254.537 331.837 251.567V251.567Z" fill="#FFB3B9"/>
<g style="mix-blend-mode:screen" opacity="0.42">
<path d="M556.367 453.487C524.387 352.347 437.077 319.647 437.077 319.647L432.417 312.577C434.337 312.527 436.487 312.537 438.837 312.687C459.377 313.967 495.647 325.607 527.887 383.987C541.267 408.217 550.297 431.897 556.357 453.487H556.367Z" fill="#E6E7E8"/>
</g>
<g style="mix-blend-mode:multiply">
<path d="M484.437 407.267C484.437 407.267 477.517 456.787 444.587 480.887C444.767 480.097 444.857 479.677 444.857 479.677L442.507 456.557C442.507 456.557 427.867 468.617 419.417 475.717C422.177 460.597 433.377 438.767 433.377 438.767L484.437 407.257V407.267Z" fill="#E6E7E8"/>
</g>
<path d="M443.778 345.487C442.848 352.247 440.808 359.977 437.078 368.627C434.128 375.457 430.118 382.867 424.748 390.827C424.978 390.097 430.598 372.477 431.808 353.417C432.588 341.317 431.568 328.617 426.258 319.327C425.138 317.367 423.838 315.567 422.308 313.947C422.308 313.947 428.628 312.027 438.838 312.687C439.038 312.987 446.668 324.537 443.768 345.477L443.778 345.487Z" fill="#9F134E"/>
<g style="mix-blend-mode:multiply" opacity="0.45">
<path d="M437.078 368.627C434.128 375.457 430.118 382.867 424.748 390.827C424.978 390.097 430.598 372.477 431.808 353.417C434.238 357.037 437.008 362.477 437.078 368.627Z" fill="#9F134E"/>
</g>
<path d="M442.507 456.557C442.507 456.557 442.497 456.557 442.487 456.567C441.737 457.187 417.647 477.057 414.017 480.347C410.337 483.697 382.617 480.347 382.617 480.347C370.787 470.407 344.517 435.737 324.637 408.497L324.607 408.467C321.127 403.717 317.867 399.187 314.897 395.067C305.667 382.237 299.387 373.247 299.387 373.247C304.917 362.447 323.017 353.137 323.017 353.137C323.017 353.137 328.967 359.147 337.357 367.147C354.457 383.457 381.627 408.027 388.887 406.687C399.697 404.667 418.377 383.977 418.377 383.977C418.377 383.977 437.837 358.707 470.007 357.807H470.017C472.297 357.737 474.647 357.797 477.047 357.997C513.377 360.997 478.397 438.447 442.517 456.547L442.507 456.557Z" fill="white"/>
<g style="mix-blend-mode:screen" opacity="0.42">
<path d="M469.997 357.817C469.077 358.487 425.947 389.667 411.527 407.267C396.957 425.047 374.267 418.547 337.347 367.157C354.447 383.467 381.617 408.037 388.877 406.697C399.687 404.677 418.367 383.987 418.367 383.987C418.367 383.987 437.827 358.717 469.997 357.817V357.817Z" fill="#E6E7E8"/>
</g>
<path d="M322.998 353.147C322.998 353.147 307.108 375.437 301.588 372.417C301.588 372.417 289.618 361.227 284.568 347.517C283.898 345.707 283.358 343.867 282.978 341.987C282.978 341.987 287.338 330.177 299.368 329.927C299.368 329.927 311.858 338.697 314.388 345.977C314.278 345.317 312.548 335.437 316.918 335.197C320.468 334.997 322.188 346.217 322.768 351.007C322.918 352.307 322.988 353.137 322.988 353.137L322.998 353.147Z" fill="#FFC4C6"/>
<g style="mix-blend-mode:multiply">
<path d="M322.997 353.147C322.997 353.147 307.107 375.437 301.587 372.417C301.587 372.417 289.617 361.227 284.567 347.517C284.567 347.517 297.077 367.777 322.777 351.017C322.927 352.317 322.997 353.147 322.997 353.147Z" fill="#FFC4C6"/>
</g>
<path d="M337.337 367.157C336.617 367.637 335.897 368.157 335.207 368.677C331.187 371.727 327.667 375.427 324.597 379.357C320.587 384.487 317.367 390.027 314.887 395.067C305.657 382.237 299.377 373.247 299.377 373.247C299.967 372.097 300.697 370.967 301.537 369.857C304.697 365.677 309.347 361.877 313.517 358.957C318.627 355.387 322.997 353.137 322.997 353.137C322.997 353.137 328.947 359.147 337.337 367.147V367.157Z" fill="#9F134E"/>
<g style="mix-blend-mode:screen">
<path d="M337.337 367.157C336.617 367.637 335.897 368.157 335.207 368.677C323.337 365.197 316.357 360.957 313.507 358.967C318.617 355.397 322.987 353.147 322.987 353.147C322.987 353.147 328.937 359.157 337.327 367.157H337.337Z" fill="#9F134E"/>
</g>
<path d="M367.477 254.577C367.267 259.047 365.747 263.217 361.587 268.207C356.557 274.247 340.637 273.907 336.107 268.207C335.567 267.527 335.087 266.767 334.657 265.967C331.547 260.087 331.407 251.717 331.407 251.717C343.137 238.747 367.107 246.077 367.447 251.717C367.497 252.697 367.517 253.647 367.467 254.577H367.477Z" fill="#FFC4C6"/>
<path d="M140.187 167.267C138.467 173.707 132.537 177.707 126.947 176.217C121.357 174.717 120.897 169.007 122.617 162.567C124.337 156.127 127.597 151.407 133.187 152.907C138.777 154.407 141.907 160.837 140.187 167.277V167.267Z" fill="#FF6B06"/>
<path d="M137.437 166.527C135.717 172.967 131.727 177.487 126.137 175.997C120.547 174.507 118.227 168.287 119.947 161.847C121.667 155.407 126.787 151.187 132.377 152.687C137.967 154.187 139.157 160.097 137.427 166.537L137.437 166.527Z" fill="#FFC201"/>
<g style="mix-blend-mode:screen">
<path d="M137.857 158.537C136.947 156.817 135.427 155.537 133.217 154.937C131.857 154.577 130.527 154.557 129.267 154.817C129.427 154.887 129.587 154.997 129.717 155.127C130.767 156.177 130.137 158.527 128.287 160.367C126.447 162.207 124.097 162.847 123.047 161.797C122.597 161.347 122.457 160.677 122.577 159.907C121.797 161.147 121.197 162.557 120.777 164.107C120.087 166.677 120.047 169.207 120.597 171.407C119.257 168.767 119.007 165.347 119.937 161.847C121.657 155.397 126.777 151.177 132.367 152.677C135.447 153.497 137.187 155.667 137.837 158.527L137.857 158.537Z" fill="#FFC201"/>
</g>
<g style="mix-blend-mode:screen">
<path d="M130.237 163.779C131.016 163.198 131.404 162.401 131.104 161.998C130.804 161.595 129.929 161.739 129.149 162.32C128.37 162.9 127.981 163.698 128.282 164.101C128.582 164.504 129.457 164.36 130.237 163.779Z" fill="#FFC201"/>
</g>
<path d="M235.048 156.217C235.048 156.217 224.408 189.397 206.058 205.997C206.058 205.997 228.228 172.427 235.048 156.217Z" fill="#5F142F"/>
<path d="M253.568 253.487C245.528 226.067 245.788 188.897 245.788 188.897H245.798C247.078 192.687 248.438 196.367 249.888 199.617C248.388 221.687 253.568 253.487 253.568 253.487Z" fill="#5F142F"/>
<path d="M197.008 269.287C197.008 269.287 196.118 269.337 194.608 269.517C191.318 269.897 185.048 270.867 178.468 273.107C177.868 273.307 177.258 273.527 176.648 273.757C176.328 273.877 175.998 273.997 175.668 274.127C168.468 276.967 161.358 281.417 157.788 288.377C150.868 301.887 147.828 310.987 136.968 317.427C125.338 316.147 104.858 333.307 93.5976 326.837C86.7376 322.887 87.2476 308.937 89.6176 291.337C90.8976 281.707 92.7576 270.977 94.2476 260.217C110.668 244.087 138.918 242.407 162.318 248.797C163.388 249.097 164.458 249.397 165.508 249.727L166.268 249.957C172.958 252.097 179.148 254.887 184.428 258.177C189.658 261.447 193.988 265.207 197.018 269.287H197.008Z" fill="#9F134E"/>
<g style="mix-blend-mode:multiply" opacity="0.45">
<path d="M176.648 273.747C176.328 273.867 175.998 273.987 175.668 274.117C168.468 276.957 161.358 281.407 157.788 288.367C150.868 301.877 147.828 310.977 136.968 317.417C125.338 316.137 104.858 333.297 93.5976 326.827C86.7376 322.877 87.2476 308.927 89.6176 291.327C109.258 309.277 147.818 298.067 149.928 284.927C152.628 268.177 168.688 263.137 168.688 263.137L176.648 273.737V273.747Z" fill="#9F134E"/>
</g>
<g style="mix-blend-mode:multiply" opacity="0.45">
<path d="M194.607 269.517C191.317 269.897 185.047 270.867 178.467 273.107C177.867 273.307 177.257 273.527 176.647 273.757C173.057 266.717 169.047 257.847 165.507 249.737C160.227 237.577 156.027 227.127 156.027 227.127C161.897 219.657 162.317 210.527 162.317 210.527C165.517 230.757 175.857 247.387 184.417 258.187C188.557 263.417 192.297 267.287 194.607 269.527V269.517Z" fill="#9F134E"/>
</g>
<path d="M162.308 210.517C162.308 210.517 171.608 247.477 196.998 271.737C196.998 271.737 169.598 255.517 162.308 210.517Z" fill="#5F142F"/>
<path d="M178.468 273.097C177.538 273.407 176.608 273.747 175.668 274.117C171.828 269.327 167.158 261.517 162.318 248.787C158.808 239.597 155.218 227.837 151.768 212.807C152.078 213.737 158.068 231.817 166.258 249.957C169.978 258.187 174.148 266.447 178.458 273.097H178.468Z" fill="#5F142F"/>
<path d="M142.507 172.977C142.507 172.977 166.667 200.217 211.247 192.667C211.247 192.667 170.467 209.347 142.507 172.977V172.977Z" fill="#5F142F"/>
<path d="M148.237 112.307C148.237 112.307 150.737 131.527 154.367 142.027C152.407 136.927 148.237 125.767 145.487 116.357C147.147 113.627 148.237 112.297 148.237 112.297V112.307Z" fill="#5F142F"/>
<path d="M155.288 144.437C154.998 143.817 154.738 143.137 154.498 142.397C154.858 143.337 155.138 144.037 155.288 144.437Z" fill="#5F142F"/>
<g style="mix-blend-mode:multiply" opacity="0.45">
<path d="M171.867 136.777C171.867 136.777 177.897 160.577 204.717 169.287C204.717 169.287 174.047 167.607 171.867 136.777Z" fill="#9F134E"/>
</g>
<g style="mix-blend-mode:screen">
<path d="M196.657 30.5869C197.837 31.0569 198.747 31.8069 199.247 32.8369C200.807 36.0669 197.697 40.7869 192.317 43.3769C186.937 45.9669 181.317 45.4369 179.767 42.2069C179.327 41.2869 179.267 40.2469 179.517 39.1669C165.977 48.6569 158.807 61.4969 155.177 70.5969C158.057 59.2269 162.017 47.9469 167.347 40.2369C182.437 18.4469 207.247 16.7769 226.687 23.4769C229.597 24.4869 232.377 25.6269 234.987 26.9969C219.587 25.5369 206.977 27.1469 196.667 30.5969L196.657 30.5869Z" fill="#9F134E"/>
</g>
<g style="mix-blend-mode:screen">
<path d="M194.971 49.5036C196.976 48.718 198.268 47.2266 197.855 46.1724C197.442 45.1182 195.481 44.9005 193.476 45.686C191.47 46.4716 190.179 47.963 190.592 49.0172C191.005 50.0714 192.965 50.2892 194.971 49.5036Z" fill="#9F134E"/>
</g>
<g style="mix-blend-mode:multiply" opacity="0.45">
<path d="M324.597 379.367C320.587 384.497 317.367 390.037 314.887 395.077C305.657 382.247 299.377 373.257 299.377 373.257C299.967 372.107 300.697 370.977 301.537 369.867C305.027 372.917 313.937 379.617 324.607 379.357L324.597 379.367Z" fill="#9F134E"/>
</g>
<g style="mix-blend-mode:screen">
<path d="M106.337 235.047C107.687 252.567 102.947 271.687 91.0474 281.497C92.0874 274.637 93.2474 267.427 94.2474 260.217C95.3574 252.247 96.2674 244.257 96.6174 236.667C97.5974 215.537 107.077 197.887 114.917 186.757C114.507 187.807 104.697 213.757 106.347 235.037L106.337 235.047Z" fill="#9F134E"/>
</g>
<g style="mix-blend-mode:screen" opacity="0.42">
<path d="M261.868 355.077C261.868 355.077 258.988 354.097 254.068 352.427C264.238 326.607 221.848 293.647 200.998 279.377C227.288 293.737 264.628 314.617 270.408 320.397C270.408 320.397 272.668 346.027 261.858 355.087L261.868 355.077Z" fill="#E6E7E8"/>
</g>
<g style="mix-blend-mode:multiply">
<path d="M442.487 456.567C441.737 457.187 417.647 477.057 414.017 480.347C410.337 483.697 382.617 480.347 382.617 480.347C370.787 470.407 344.517 435.737 324.637 408.497C326.167 409.947 372.567 462.967 393.097 465.937C413.577 468.907 441.597 456.747 442.487 456.567V456.567Z" fill="#E6E7E8"/>
</g>
<g style="mix-blend-mode:multiply">
<path d="M567.867 551.747C507.537 578.237 444.857 556.777 444.857 556.777C441.697 550.117 440.157 541.857 439.597 533.227C448.427 529.977 464.957 527.447 492.387 535.337C532.217 546.777 536.817 509.567 565.637 497.957C570.067 530.497 567.877 551.747 567.877 551.747H567.867Z" fill="#E6E7E8"/>
</g>
<g style="mix-blend-mode:multiply">
<path d="M398.637 298.207C397.297 298.577 395.867 297.887 395.427 296.567C394.657 294.257 394.367 290.707 397.957 287.757C402.647 283.897 409.757 289.737 410.057 297.357C410.147 299.557 407.607 300.927 405.877 299.567C404.217 298.267 401.827 297.317 398.637 298.207Z" fill="#FFC4C6"/>
</g>
<g style="mix-blend-mode:screen">
<path d="M281.897 332.757C277.247 330.897 272.127 330.257 269.127 330.047L270.587 323.897C270.587 323.897 281.397 324.077 282.157 326.837C282.357 327.587 282.257 329.857 281.907 332.757H281.897Z" fill="#9F134E"/>
</g>
<g style="mix-blend-mode:screen">
<path d="M443.778 345.487C441.118 329.007 431.698 322.037 426.258 319.337C425.138 317.377 423.838 315.577 422.308 313.957C422.308 313.957 428.628 312.037 438.838 312.697C439.038 312.997 446.668 324.547 443.768 345.487H443.778Z" fill="#9F134E"/>
</g>
<g style="mix-blend-mode:multiply">
<path d="M246.967 66.5669C240.687 60.0169 227.587 58.3069 221.167 57.8669C218.777 57.6969 216.407 58.3269 214.437 59.6769C191.207 75.6069 175.657 105.217 175.147 106.167C182.237 85.6069 200.327 64.9069 215.297 50.7469C220.987 45.3669 226.217 40.9269 230.217 37.7969C233.597 37.8269 237.577 37.8869 241.047 37.9269C243.597 43.3669 245.177 50.3469 246.127 57.7069C246.497 60.6269 246.777 63.5969 246.967 66.5669V66.5669Z" fill="#FFC4C6"/>
</g>
<g style="mix-blend-mode:multiply">
<path d="M367.477 254.577C367.267 259.047 365.747 263.217 361.587 268.207C356.557 274.247 340.637 273.907 336.107 268.207C335.567 267.527 335.087 266.767 334.657 265.967C356.647 270.937 367.467 254.577 367.467 254.577H367.477Z" fill="#FFC4C6"/>
</g>
</svg>
