<svg width="612" height="595" viewBox="0 0 612 595" fill="none" xmlns="http://www.w3.org/2000/svg">
<path d="M599.354 288C663.53 433.468 470.518 576 311.58 576C152.641 576 -74.3537 448.294 23.8051 288C106.856 152.378 152.653 0 311.58 0C470.507 0 535.167 142.498 599.354 288V288Z" fill="#E3F8FD"/>
<path d="M315.5 71H135V329.95H315.5V71Z" fill="#BAEEF7"/>
<path d="M296.59 91.04H153.91V309.9H296.59V91.04Z" fill="white"/>
<path d="M477.51 71H297.01V329.95H477.51V71Z" fill="#BAEEF7"/>
<path d="M458.59 91.04H315.92V309.9H458.59V91.04Z" fill="white"/>
<path d="M153.91 223.89C180.8 227.51 233.84 235.31 296.59 248.09V309.9H153.91V223.89V223.89Z" fill="#77EBF7"/>
<path d="M458.59 217.78V308.5C456.99 308.97 455.36 309.44 453.71 309.91H315.92V257.82C360.78 227.03 423.35 219.48 458.59 217.79V217.78Z" fill="#9CEEF2"/>
<path d="M458.59 289.09V309.91H315.92V252.13C361.4 261.85 410.87 274.08 458.59 289.09Z" fill="#77EBF7"/>
<path d="M435.39 168.33H421.37C421.4 168.01 421.42 167.68 421.42 167.35C421.42 161.98 417.07 157.63 411.7 157.63C411.31 157.63 410.93 157.66 410.56 157.7C408.81 152.3 403.73 148.39 397.75 148.39C390.31 148.39 384.28 154.42 384.28 161.86C384.28 162.29 384.3 162.71 384.34 163.13C383.85 163.05 383.35 163.01 382.83 163.01C379.05 163.01 375.78 165.17 374.17 168.32H363.76C362.41 168.32 361.19 168.87 360.3 169.75C359.41 170.64 358.87 171.86 358.87 173.21C358.87 175.91 361.06 178.1 363.76 178.1H435.39C436.74 178.1 437.96 177.55 438.85 176.66C439.74 175.77 440.28 174.55 440.28 173.2C440.28 170.5 438.09 168.31 435.39 168.31V168.33Z" fill="#E3F8FD"/>
<path d="M296.59 130.7V139.05H238.68C236.37 139.05 234.5 137.18 234.5 134.87C234.5 133.72 234.97 132.67 235.72 131.91C236.48 131.15 237.52 130.69 238.68 130.69H247.57C248.94 128 251.74 126.15 254.96 126.15C255.4 126.15 255.82 126.19 256.25 126.26C256.21 125.9 256.19 125.53 256.19 125.17C256.19 118.81 261.35 113.67 267.69 113.67C272.8 113.67 277.13 117 278.63 121.62C278.95 121.58 279.27 121.56 279.6 121.56C284.18 121.56 287.9 125.27 287.9 129.86C287.9 130.14 287.9 130.42 287.86 130.69H296.58L296.59 130.7Z" fill="#E3F8FD"/>
<path d="M241.09 199C241.09 200.61 240.43 202.06 239.38 203.11C238.32 204.17 236.87 204.82 235.26 204.82H153.91V193.19H162.48C164.39 189.44 168.29 186.88 172.78 186.88C173.38 186.88 173.98 186.92 174.56 187.02C174.52 186.53 174.49 186.02 174.49 185.51C174.49 176.66 181.66 169.49 190.51 169.49C197.62 169.49 203.65 174.13 205.74 180.56C206.19 180.51 206.64 180.48 207.1 180.48C213.49 180.48 218.66 185.65 218.66 192.03C218.66 192.42 218.64 192.81 218.6 193.19H235.26C238.48 193.19 241.08 195.8 241.08 199.01L241.09 199Z" fill="#E3F8FD"/>
<path d="M549 463.987H332.64C332.64 463.987 332.68 460.817 333.04 455.397C334.38 435.527 340.16 385.317 365.15 349.837C365.15 349.837 367.63 327.237 372.59 301.047C372.59 301.037 372.6 301.027 372.6 301.007C375.88 283.667 380.26 264.747 385.73 249.797C399.46 212.227 418.24 203.207 443.89 203.207C452.95 203.207 463.41 209.067 472.79 218.777C489.97 236.517 503.55 267.107 498.44 298.157C498.43 298.177 498.43 298.197 498.43 298.197C498.43 298.207 498.43 298.237 498.44 298.247C498.78 299.087 504.28 312.717 510.9 330.917C516.59 346.557 523.13 365.567 527.92 382.667C529.03 386.627 530.05 390.467 530.93 394.147C540.32 432.937 548.99 464.007 548.99 464.007L549 463.987Z" fill="#9F134E"/>
<g style="mix-blend-mode:multiply" opacity="0.45">
<path d="M549 463.987H332.64C332.64 463.987 332.68 460.817 333.04 455.397C358.71 430.127 414.7 416.207 468.11 424.787C510.58 431.617 523.99 405.027 527.92 382.647C529.03 386.607 530.05 390.447 530.93 394.127C540.32 432.917 548.99 463.987 548.99 463.987H549Z" fill="#9F134E"/>
</g>
<g style="mix-blend-mode:multiply" opacity="0.45">
<path d="M510.9 330.897C506.47 368.667 488.34 405.307 479.33 421.567C479.27 421.677 479.21 421.787 479.15 421.897C476.66 426.397 474.9 429.277 474.39 430.107C474.35 430.157 474.33 430.197 474.3 430.247L474.28 430.267C502.41 382.467 498.43 298.177 498.43 298.177C498.43 298.187 498.43 298.217 498.44 298.227C498.78 299.067 504.28 312.697 510.9 330.897V330.897Z" fill="#9F134E"/>
</g>
<g style="mix-blend-mode:multiply" opacity="0.45">
<path d="M485.25 266.407C485.25 266.407 482.71 279.767 465.92 283.657C449.12 287.537 477.61 288.267 477.61 288.267C477.61 288.267 485.99 280.137 485.25 266.417V266.407Z" fill="#9F134E"/>
</g>
<g style="mix-blend-mode:multiply" opacity="0.45">
<path d="M394.94 264.777C394.94 264.777 398.66 282.247 413.33 279.107C427.99 275.977 401.88 287.347 401.88 287.347C401.88 287.347 394.58 278.857 394.94 264.777V264.777Z" fill="#9F134E"/>
</g>
<g style="mix-blend-mode:multiply" opacity="0.45">
<path d="M431.84 403.867C431.76 403.917 431.66 403.957 431.57 403.997C431.51 404.017 431.48 404.047 431.45 404.057C431.44 404.057 431.44 404.067 431.43 404.067C459.33 375.217 466.92 328.247 466.92 328.247C466.92 328.247 466.92 328.257 466.93 328.267C467.36 329.517 484.04 379.587 431.84 403.867V403.867Z" fill="#9F134E"/>
</g>
<g style="mix-blend-mode:multiply" opacity="0.45">
<path d="M461.01 322.877C459.31 340.307 451.82 375.387 419.24 385.247C376.56 398.147 365.75 352.477 365.18 349.947C365.17 349.907 365.17 349.887 365.17 349.867C365.16 349.857 365.16 349.847 365.16 349.847C430.28 391.417 459.92 323.417 460.63 321.787C460.63 321.787 460.634 321.78 460.64 321.767L461.02 322.887L461.01 322.877Z" fill="#9F134E"/>
</g>
<path d="M479.33 421.567C479.27 421.677 479.21 421.787 479.15 421.897C476.73 426.497 474.93 429.297 474.39 430.107C474.35 430.157 474.33 430.197 474.3 430.247L474.23 430.357C474.23 430.357 474.27 430.297 474.28 430.277C502.41 382.477 498.43 298.187 498.43 298.187C498.43 298.197 498.43 298.227 498.44 298.237C507.11 359.117 488.75 403.587 479.34 421.577L479.33 421.567Z" fill="#5F142F"/>
<path d="M485.25 266.407C485.25 266.407 485.42 285.187 468.99 292.237C468.99 292.237 488.33 295.487 485.25 266.407Z" fill="#5F142F"/>
<path d="M394.94 264.777C394.94 264.777 390.97 290.417 415.89 302.517L413.32 295.117C413.32 295.117 397.29 288.797 394.94 264.777Z" fill="#5F142F"/>
<path d="M461.01 322.877C459.31 340.307 451.82 375.387 419.24 385.247C376.56 398.147 365.75 352.477 365.18 349.947C365.17 349.907 365.17 349.887 365.17 349.867C365.68 350.897 383.13 385.497 413.29 381.607C439.78 378.197 456.73 343.247 460.63 321.777C460.63 321.777 460.633 321.77 460.64 321.757C461.24 318.427 461.54 315.427 461.5 312.907C461.5 312.907 461.61 316.827 461.02 322.877H461.01Z" fill="#5F142F"/>
<path d="M306.27 464.707L80.8901 466.517C80.8901 466.517 81.3901 461.887 82.4501 454.327C83.2701 448.517 84.4201 440.957 85.9501 432.437C91.0401 403.917 100.27 364.557 114.84 343.347C114.84 343.347 136.71 328.827 169.49 323.607H169.5C185.61 321.047 204.38 320.727 224.46 325.477C244.01 330.097 264.82 339.527 285.69 356.357C285.69 356.357 287.83 361.007 290.76 370.337C291.5 372.707 292.31 375.377 293.13 378.357C298.09 396.247 304.08 425.027 306.27 464.717V464.707Z" fill="#2596B8"/>
<g style="mix-blend-mode:screen" opacity="0.48">
<path d="M290.76 370.317C267.36 349.867 226.02 326.347 224.46 325.457C244.01 330.077 264.82 339.507 285.69 356.337C285.69 356.337 287.83 360.987 290.76 370.317Z" fill="#2596B8"/>
</g>
<g style="mix-blend-mode:screen" opacity="0.48">
<path d="M169.48 323.597C167.88 324.197 121.9 341.777 113.03 375.127C105.28 404.217 100.72 424.577 85.9399 432.427C91.0299 403.907 100.26 364.547 114.83 343.337C114.83 343.337 136.7 328.817 169.48 323.597Z" fill="#2596B8"/>
</g>
<g style="mix-blend-mode:multiply" opacity="0.59">
<path d="M306.27 464.707L80.8901 466.517C80.8901 466.517 81.3901 461.887 82.4501 454.327C106.52 426.037 170.05 411.497 224.68 419.927C273.27 427.407 288.46 396.047 293.13 378.357C298.09 396.247 304.08 425.027 306.27 464.717V464.707Z" fill="#2596B8"/>
</g>
<path d="M200.9 333.227H189.79V400.677H200.9V333.227Z" fill="#2B2B2B"/>
<path d="M171.53 312.767C175.79 311.667 193.66 307.837 220.86 312.847C221.64 312.987 222.32 313.447 222.75 314.107C223.79 315.697 225.29 319.197 224.4 325.437C224.4 325.437 205.35 336.467 195.87 337.557C186.39 338.637 169.52 323.587 169.52 323.587C169.52 323.587 166.59 318.927 169.86 313.967C170.25 313.377 170.84 312.947 171.53 312.767V312.767Z" fill="#2B2B2B"/>
<path d="M219.39 317.517C219.39 317.577 219.39 317.627 219.37 317.687C218.86 320.477 205.71 324.637 195.08 324.637C184.45 324.637 174.49 319.557 174.49 316.777C174.49 315.537 176.71 314.557 180.14 313.847C184.39 312.947 190.5 312.487 196.51 312.487C207.36 312.487 219.39 314.747 219.39 317.517V317.517Z" fill="#161616"/>
<path d="M219.36 317.677C218.85 320.467 205.7 324.627 195.07 324.627C184.44 324.627 174.48 319.547 174.48 316.767C174.48 315.527 176.7 314.547 180.13 313.837C184.11 317.117 196.53 324.827 219.36 317.677V317.677Z" fill="#0A0A0A"/>
<path d="M175.77 282.497C175.99 294.777 175.67 306.357 174.48 316.767C174.48 316.767 180.5 325.467 196.93 325.467C213.36 325.467 219.36 317.677 219.36 317.677C220.02 309.267 221.97 299.847 224.68 289.827L175.77 282.497V282.497Z" fill="#FFC4C6"/>
<g style="mix-blend-mode:multiply">
<path d="M175.77 282.497C175.99 294.777 175.67 306.357 174.48 316.767C174.48 316.767 180.5 325.467 196.93 325.467C213.36 325.467 219.36 317.677 219.36 317.677C220.02 309.267 221.97 299.847 224.68 289.827L175.77 282.497V282.497Z" fill="#FFC4C6"/>
</g>
<path d="M176.45 321.587C179.09 323.507 184.54 326.327 193.67 326.277C194.3 326.277 194.43 327.167 193.81 327.327C188.86 328.637 180.15 329.637 175.68 322.317C175.38 321.817 175.98 321.257 176.45 321.597V321.587Z" fill="#474747"/>
<path d="M479.28 289.527C468.8 319.147 457.25 331.397 437.47 330.337C413.02 329.017 400.89 289.887 400.89 289.887C400.89 289.887 400.9 289.877 400.9 289.837C404.11 280.967 415.68 258.787 423.84 243.537C428.67 234.507 432.31 227.897 432.31 227.897H448.21C451.06 231.257 454.14 236.097 457.24 241.617C465.68 256.677 474.11 276.767 477.6 285.357C477.68 285.557 477.77 285.757 477.84 285.937C477.97 286.247 478.09 286.527 478.19 286.797C478.19 286.797 478.193 286.8 478.2 286.807C478.72 288.107 479.06 288.997 479.2 289.357L479.27 289.537L479.28 289.527Z" fill="#FFC4C6"/>
<g style="mix-blend-mode:multiply">
<path d="M477.61 285.347C473.1 274.797 459.95 247.897 442.89 247.897C422.09 247.897 401.72 288.257 400.91 289.837C404.12 280.967 415.69 258.787 423.85 243.537C428.68 234.507 432.32 227.897 432.32 227.897H448.22C451.07 231.257 454.15 236.097 457.25 241.617C465.69 256.677 474.12 276.767 477.61 285.357V285.347Z" fill="#FFC4C6"/>
</g>
<path d="M457.25 241.607C441.41 237.157 430.41 240.117 423.85 243.537C428.68 234.507 432.32 227.897 432.32 227.897H448.22C451.07 231.257 454.15 236.097 457.25 241.617V241.607Z" fill="#5F142F"/>
<path d="M149.14 415.297L140.36 414.077L124.47 411.857L117.41 410.877L118.53 407.757L128.77 379.497L130.36 375.127L143.45 378.227L148.25 379.357L148.95 407.457L149.14 415.297Z" fill="#FFC4C6"/>
<path d="M160.75 359.067C160.75 363.627 158.77 367.797 156.24 371.257C153.62 374.847 150.42 377.677 148.25 379.357C146.77 380.527 145.77 381.167 145.77 381.167L137 379.407L136.29 379.267C133.73 379.197 131.8 377.597 130.35 375.137C126.77 369.097 126.05 357.917 125.88 351.457C125.86 350.757 126.05 350.147 126.41 349.617C129.59 344.837 146.4 345.897 155.26 351.317C158.54 353.327 160.74 355.937 160.74 359.067H160.75Z" fill="#FFC4C6"/>
<path d="M125.89 351.457C125.89 351.457 131.29 332.307 134.73 329.357C138.17 326.407 151.92 329.847 157.44 333.527C162.97 337.207 155.23 349.067 154.86 353.047C154.49 357.027 125.88 351.447 125.88 351.447L125.89 351.457Z" fill="#FFC4C6"/>
<g style="mix-blend-mode:multiply">
<path d="M148.25 379.357L148.95 407.447C147.85 408.637 146.67 409.817 145.39 410.967C143.8 412.407 142.11 413.427 140.36 414.077C135.29 415.957 129.7 414.767 124.47 411.857C122.43 410.727 120.42 409.327 118.53 407.757L128.77 379.497C131.76 379.717 134.5 379.677 137 379.407C139.34 379.187 141.49 378.767 143.44 378.227C149.21 376.637 153.35 373.907 156.23 371.257C153.61 374.847 150.41 377.677 148.24 379.357H148.25Z" fill="#FFC4C6"/>
</g>
<path d="M278.35 410.877L271.81 411.787L255.68 414.027H255.67L246.62 415.287L246.82 407.027L247.51 379.347L252.53 378.167L265.41 375.117L267.01 379.527L277.32 408.007L278.36 410.867L278.35 410.877Z" fill="#FFC4C6"/>
<path d="M269.88 351.457C269.7 357.907 268.98 369.097 265.4 375.137C263.95 377.607 262.02 379.197 259.46 379.267L258.89 379.387H258.88L249.98 381.167C249.98 381.167 248.98 380.527 247.5 379.357C245.09 377.477 241.42 374.207 238.67 370.037H238.66C236.56 366.827 235 363.087 235 359.057C235 355.927 237.2 353.317 240.48 351.307C249.33 345.897 266.13 344.817 269.33 349.597C269.71 350.137 269.9 350.757 269.87 351.447L269.88 351.457Z" fill="#FFC4C6"/>
<path d="M269.88 351.457C269.88 351.457 264.48 332.307 261.04 329.357C257.6 326.407 243.85 329.847 238.33 333.527C232.8 337.207 240.54 349.067 240.91 353.047C241.28 357.027 269.89 351.447 269.89 351.447L269.88 351.457Z" fill="#FFC4C6"/>
<g style="mix-blend-mode:multiply">
<path d="M277.31 408.017C275.55 409.447 273.71 410.727 271.8 411.787C266.5 414.767 260.81 415.997 255.67 414.027H255.66C253.96 413.377 252.3 412.377 250.75 410.967C249.33 409.677 248.02 408.367 246.82 407.037L247.51 379.357C245.1 377.477 241.43 374.207 238.68 370.037C241.53 373.007 245.97 376.327 252.53 378.177C254.47 378.717 256.57 379.147 258.89 379.387H258.9C261.37 379.657 264.06 379.727 267 379.537L277.31 408.017V408.017Z" fill="#FFC4C6"/>
</g>
<path d="M151.04 395.807L146.44 465.987C146.44 465.987 126.66 486.557 99.5698 466.517L103.35 453.107L108.6 434.507L120.97 390.657C120.97 390.657 126.23 390.387 132.63 390.907C136.76 391.237 141.37 391.907 145.35 393.187C147.49 393.857 149.44 394.727 151.03 395.807H151.04Z" fill="#0F667A"/>
<path d="M295.16 466.517C268.07 486.557 248.29 465.987 248.29 465.987L243.68 395.807C245.42 394.627 247.58 393.717 249.93 393.007C253.52 391.917 257.56 391.307 261.3 390.967C268.06 390.367 273.76 390.657 273.76 390.657L286.34 435.277L291.35 453.007L295.15 466.507L295.16 466.517Z" fill="#0F667A"/>
<g style="mix-blend-mode:multiply" opacity="0.59">
<path d="M151.04 395.807L146.44 465.987C146.44 465.987 126.66 486.557 99.5698 466.517L103.35 453.107C144.96 446.897 145.83 404.217 145.35 393.187C147.49 393.857 149.44 394.727 151.03 395.807H151.04Z" fill="#2596B8"/>
</g>
<g style="mix-blend-mode:multiply" opacity="0.59">
<path d="M295.16 466.517C268.07 486.557 248.29 465.987 248.29 465.987L243.68 395.807C245.42 394.627 247.58 393.717 249.93 393.007C249.43 403.687 250.06 446.477 291.35 453.007L295.15 466.507L295.16 466.517Z" fill="#2596B8"/>
</g>
<path d="M393.46 422.777L385.77 421.707L371.86 419.767L365.68 418.907L366.66 416.177L375.63 391.437L377.01 387.607L388.47 390.317L392.68 391.317L393.29 415.907L393.46 422.777Z" fill="#FFC4C6"/>
<path d="M403.62 373.547C403.62 377.537 401.88 381.187 399.67 384.217C397.37 387.357 394.57 389.837 392.68 391.307C391.39 392.327 390.51 392.887 390.51 392.887L382.84 391.347L382.22 391.227C379.98 391.167 378.29 389.767 377.02 387.607C373.89 382.327 373.26 372.527 373.11 366.887C373.09 366.277 373.25 365.737 373.58 365.277C376.36 361.087 391.08 362.017 398.83 366.767C401.71 368.527 403.63 370.807 403.63 373.547H403.62Z" fill="#FFC4C6"/>
<path d="M373.1 366.887C373.1 366.887 377.83 350.117 380.84 347.537C383.85 344.957 395.89 347.967 400.72 351.187C405.56 354.407 398.79 364.787 398.46 368.277C398.14 371.767 373.09 366.877 373.09 366.877L373.1 366.887Z" fill="#FFC4C6"/>
<g style="mix-blend-mode:multiply">
<path d="M392.68 391.317L393.29 415.907C392.33 416.947 391.29 417.987 390.18 418.987C388.78 420.247 387.31 421.137 385.77 421.707C381.33 423.347 376.44 422.307 371.86 419.767C370.07 418.777 368.31 417.557 366.66 416.177L375.63 391.437C378.25 391.637 380.65 391.597 382.84 391.357C384.89 391.157 386.77 390.797 388.48 390.327C393.53 388.927 397.16 386.537 399.68 384.227C397.38 387.367 394.58 389.847 392.69 391.317H392.68Z" fill="#FFC4C6"/>
</g>
<path d="M506.56 418.907L500.83 419.707L486.71 421.667H486.7L478.78 422.777L478.96 415.547L479.56 391.317L483.96 390.287L495.23 387.617L496.63 391.477L505.66 416.407L506.57 418.907H506.56Z" fill="#FFC4C6"/>
<path d="M499.15 366.887C498.99 372.537 498.36 382.327 495.23 387.607C493.96 389.767 492.27 391.167 490.03 391.227L489.53 391.327H489.52L481.73 392.887C481.73 392.887 480.85 392.327 479.56 391.307C477.45 389.667 474.23 386.797 471.83 383.147H471.82C469.98 380.337 468.61 377.067 468.61 373.537C468.61 370.797 470.53 368.507 473.41 366.757C481.16 362.017 495.86 361.077 498.66 365.257C498.99 365.737 499.16 366.267 499.14 366.877L499.15 366.887Z" fill="#FFC4C6"/>
<path d="M499.15 366.887C499.15 366.887 494.42 350.117 491.41 347.537C488.4 344.957 476.36 347.967 471.53 351.187C466.69 354.407 473.46 364.787 473.79 368.277C474.12 371.767 499.16 366.877 499.16 366.877L499.15 366.887Z" fill="#FFC4C6"/>
<g style="mix-blend-mode:multiply">
<path d="M505.65 416.407C504.11 417.657 502.5 418.777 500.83 419.707C496.19 422.317 491.21 423.387 486.71 421.667H486.7C485.21 421.097 483.76 420.217 482.4 418.987C481.16 417.857 480.01 416.707 478.96 415.547L479.56 391.317C477.45 389.677 474.23 386.807 471.83 383.157C474.32 385.757 478.21 388.657 483.95 390.287C485.65 390.767 487.49 391.137 489.51 391.337H489.52C491.68 391.577 494.04 391.637 496.61 391.467L505.64 416.397L505.65 416.407Z" fill="#FFC4C6"/>
</g>
<path d="M395.12 405.707L391.09 467.137C391.09 467.137 373.78 485.137 350.07 467.597L353.45 455.607L357.61 440.887L368.8 401.207C368.8 401.207 373.28 400.967 378.77 401.407C381.23 401.597 383.89 401.927 386.45 402.457C389.72 403.127 392.84 404.157 395.12 405.707V405.707Z" fill="#5F142F"/>
<path d="M521.28 467.597C497.57 485.137 480.25 467.137 480.25 467.137L476.22 405.707C478.23 404.347 480.87 403.387 483.71 402.717C486.46 402.057 489.39 401.667 492.1 401.437C497.81 400.957 502.54 401.197 502.54 401.197L513.82 441.187L517.98 455.907L521.28 467.587V467.597Z" fill="#5F142F"/>
<g style="mix-blend-mode:multiply" opacity="0.45">
<path d="M395.12 405.707L391.09 467.137C391.09 467.137 373.78 485.137 350.07 467.597L353.45 455.607C385.61 447.357 386.81 412.717 386.45 402.457C389.72 403.127 392.84 404.157 395.12 405.707V405.707Z" fill="#9F134E"/>
</g>
<g style="mix-blend-mode:multiply" opacity="0.45">
<path d="M521.28 467.597C497.57 485.137 480.25 467.137 480.25 467.137L476.22 405.707C478.23 404.347 480.87 403.387 483.71 402.717C483.37 413.447 484.88 448.317 517.98 455.917L521.28 467.597Z" fill="#9F134E"/>
</g>
<path d="M575.92 463.977H49V475.277H575.92V463.977Z" fill="#2B2B2B"/>
<path d="M538.15 463.987L306.27 594.907L77.6299 463.987H538.15Z" fill="#FFC201"/>
<path d="M468.11 463.987L306.27 555.367L146.69 463.987H468.11Z" fill="#FDDF0F"/>
<path opacity="0.15" d="M307.12 459.467C307.12 459.467 307.2 459.447 307.24 459.427L306.8 462.577C306.8 462.577 306.76 462.587 306.74 462.597C306.43 462.707 304.9 463.227 302.56 463.687C302.52 463.697 302.48 463.707 302.43 463.707C301.95 463.797 301.46 463.897 300.98 463.967C300.71 464.017 300.44 464.047 300.14 464.087C299.82 464.137 299.48 464.177 299.14 464.217C298.37 464.297 297.57 464.367 296.73 464.407C296.58 464.417 296.42 464.417 296.26 464.427C295.91 464.437 295.54 464.447 295.17 464.437C291.64 464.487 287.61 464.027 283.53 462.567L283.09 459.417C283.09 459.417 283.17 459.437 283.21 459.457L282.76 454.967C296.59 451.987 304.79 443.417 309.52 435.697L307.12 459.457V459.467Z" fill="#231F20"/>
<path d="M431.84 403.867C436.28 401.597 475.09 380.267 466.92 328.247C466.92 328.247 466.92 328.257 466.93 328.267C467.36 329.517 484.04 379.587 431.84 403.867V403.867Z" fill="#5F142F"/>
<g style="mix-blend-mode:screen" opacity="0.33">
<path d="M132.64 390.907C131.1 401.277 125.95 421.407 108.61 434.517L120.98 390.667C120.98 390.667 126.24 390.397 132.64 390.917V390.907Z" fill="#0F667A"/>
</g>
<g style="mix-blend-mode:screen" opacity="0.33">
<path d="M286.35 435.277C268.22 422.227 262.88 401.557 261.3 390.967C268.06 390.367 273.76 390.657 273.76 390.657L286.34 435.277H286.35Z" fill="#0F667A"/>
</g>
<g style="mix-blend-mode:screen">
<path d="M472.79 218.767C463.41 209.057 452.95 203.197 443.89 203.197C418.24 203.197 399.46 212.227 385.73 249.787C380.26 264.747 375.89 283.657 372.6 300.997C380.84 270.157 391.58 249.717 403.15 236.457C403.35 236.937 403.59 237.397 403.91 237.817C406.86 241.767 413.87 241.507 419.57 237.257C425.27 232.997 427.49 226.347 424.55 222.397C424.01 221.677 423.34 221.097 422.56 220.657C441.74 210.467 460.75 214.197 472.79 218.757V218.767Z" fill="#9F134E"/>
</g>
<g style="mix-blend-mode:screen" opacity="0.37">
<path d="M378.77 401.407C377.05 411.907 371.91 432.857 357.61 440.887L368.8 401.207C368.8 401.207 373.28 400.967 378.77 401.407Z" fill="#5F142F"/>
</g>
<g style="mix-blend-mode:screen" opacity="0.37">
<path d="M513.83 441.197C499.11 433.427 493.85 412.097 492.1 401.447C497.81 400.967 502.54 401.207 502.54 401.207L513.82 441.197H513.83Z" fill="#5F142F"/>
</g>
<path d="M259.04 226.027C259.04 226.027 258.79 227.527 258.33 230.087C256.13 242.257 248.38 277.947 243.22 289.927C237.25 303.787 226.96 308.117 206.15 306.767C186.95 305.517 155.81 297.867 154.82 273.177C154.82 273.177 133.68 271.817 132.09 253.527C130.5 235.237 151.98 224.717 164.68 244.007L167.36 233.647L171.54 217.477C171.54 217.477 218.7 206.197 259.04 226.027V226.027Z" fill="#FFC4C6"/>
<g style="mix-blend-mode:multiply">
<path d="M259.04 226.027C259.04 226.027 258.79 227.527 258.33 230.087C242.54 226.927 190.58 217.427 181.14 227.567C169.98 239.547 167.72 246.357 167.72 246.357L167.36 233.657L171.54 217.487C171.54 217.487 218.7 206.207 259.04 226.037V226.027Z" fill="#FFC4C6"/>
</g>
<path d="M171.54 217.477C171.54 217.477 173.84 235.267 166.02 249.937C165.67 250.597 164.65 250.327 164.67 249.577C164.77 245.267 162.95 238.107 151.11 233.977C151.11 233.977 145.91 233.367 141.48 235.347C141.48 235.347 141.36 223.487 145.21 219.237C149.06 214.987 167.64 215.397 171.54 217.487V217.477Z" fill="#231F20"/>
<path d="M259.04 226.027C259.04 226.027 218.7 209.607 143.16 223.047C143.16 223.047 140.65 201.947 156.75 184.187C170.85 168.637 240.11 151.097 255.87 200.627C258.11 207.667 259.26 216.067 259.04 226.027V226.027Z" fill="#E6E7E8"/>
<g style="mix-blend-mode:multiply">
<path d="M154.66 252.327C155.21 252.037 155.53 251.437 155.4 250.817C154.91 248.457 153.07 243.107 146.36 243.927C138.31 244.907 135.92 259.277 147.12 264.447C148.04 264.877 149.1 264.117 149.01 263.107C148.76 260.227 149.22 255.217 154.66 252.337V252.327Z" fill="#FFC4C6"/>
</g>
<g style="mix-blend-mode:multiply">
<path d="M259.04 226.027C259.04 226.027 218.7 209.607 143.16 223.047C166.04 203.077 205.68 215.977 230.4 204.607C241.34 199.577 249.83 199.327 255.87 200.637C258.11 207.677 259.26 216.077 259.04 226.037V226.027Z" fill="#E6E7E8"/>
</g>
<g style="mix-blend-mode:screen" opacity="0.42">
<path d="M252.93 193.337C232.93 152.947 170.11 169.467 156.75 184.187C143.77 198.497 142.89 214.967 143.03 220.827C145.11 213.557 148.97 205.207 156.02 197.437C159.77 193.307 167 189.057 176.08 185.717C176.03 186.167 176.05 186.607 176.15 187.037C177.1 190.927 184.03 192.577 191.63 190.727C199.23 188.877 204.63 184.227 203.68 180.337C203.63 180.117 203.55 179.897 203.45 179.687C221.1 178.217 239.78 181.367 252.93 193.337Z" fill="#E6E7E8"/>
</g>
<g style="mix-blend-mode:screen" opacity="0.42">
<path d="M196.717 200.751C201.031 199.629 204.068 196.951 203.5 194.771C202.933 192.59 198.977 191.732 194.663 192.854C190.35 193.975 187.313 196.653 187.88 198.834C188.447 201.014 192.404 201.873 196.717 200.751Z" fill="#E6E7E8"/>
</g>
</svg>
